%TF.GenerationSoftware,KiCad,Pcbnew,(7.0.0-0)*%
%TF.CreationDate,2023-05-15T11:59:24-04:00*%
%TF.ProjectId,4dapter-N64Board-KiCad,34646170-7465-4722-9d4e-3634426f6172,rev?*%
%TF.SameCoordinates,Original*%
%TF.FileFunction,Drillmap*%
%TF.FilePolarity,Positive*%
%FSLAX45Y45*%
G04 Gerber Fmt 4.5, Leading zero omitted, Abs format (unit mm)*
G04 Created by KiCad (PCBNEW (7.0.0-0)) date 2023-05-15 11:59:24*
%MOMM*%
%LPD*%
G01*
G04 APERTURE LIST*
%ADD10C,0.050000*%
%ADD11C,0.200000*%
G04 APERTURE END LIST*
D10*
X14100000Y-5500000D02*
X14100000Y-8500000D01*
X11850000Y-5500000D02*
X11850000Y-8500000D01*
X14100000Y-8500000D02*
X11850000Y-8500000D01*
X11850000Y-5500000D02*
X14100000Y-5500000D01*
D11*
X12095119Y-8795976D02*
X12095119Y-8595976D01*
X12095119Y-8595976D02*
X12142738Y-8595976D01*
X12142738Y-8595976D02*
X12171309Y-8605500D01*
X12171309Y-8605500D02*
X12190357Y-8624548D01*
X12190357Y-8624548D02*
X12199881Y-8643595D01*
X12199881Y-8643595D02*
X12209405Y-8681690D01*
X12209405Y-8681690D02*
X12209405Y-8710262D01*
X12209405Y-8710262D02*
X12199881Y-8748357D01*
X12199881Y-8748357D02*
X12190357Y-8767405D01*
X12190357Y-8767405D02*
X12171309Y-8786452D01*
X12171309Y-8786452D02*
X12142738Y-8795976D01*
X12142738Y-8795976D02*
X12095119Y-8795976D01*
X12295119Y-8795976D02*
X12295119Y-8662643D01*
X12295119Y-8700738D02*
X12304643Y-8681690D01*
X12304643Y-8681690D02*
X12314167Y-8672167D01*
X12314167Y-8672167D02*
X12333214Y-8662643D01*
X12333214Y-8662643D02*
X12352262Y-8662643D01*
X12418928Y-8795976D02*
X12418928Y-8662643D01*
X12418928Y-8595976D02*
X12409405Y-8605500D01*
X12409405Y-8605500D02*
X12418928Y-8615024D01*
X12418928Y-8615024D02*
X12428452Y-8605500D01*
X12428452Y-8605500D02*
X12418928Y-8595976D01*
X12418928Y-8595976D02*
X12418928Y-8615024D01*
X12542738Y-8795976D02*
X12523690Y-8786452D01*
X12523690Y-8786452D02*
X12514167Y-8767405D01*
X12514167Y-8767405D02*
X12514167Y-8595976D01*
X12647500Y-8795976D02*
X12628452Y-8786452D01*
X12628452Y-8786452D02*
X12618928Y-8767405D01*
X12618928Y-8767405D02*
X12618928Y-8595976D01*
X12843690Y-8795976D02*
X12843690Y-8595976D01*
X12843690Y-8595976D02*
X12910357Y-8738833D01*
X12910357Y-8738833D02*
X12977024Y-8595976D01*
X12977024Y-8595976D02*
X12977024Y-8795976D01*
X13157976Y-8795976D02*
X13157976Y-8691214D01*
X13157976Y-8691214D02*
X13148452Y-8672167D01*
X13148452Y-8672167D02*
X13129405Y-8662643D01*
X13129405Y-8662643D02*
X13091309Y-8662643D01*
X13091309Y-8662643D02*
X13072262Y-8672167D01*
X13157976Y-8786452D02*
X13138928Y-8795976D01*
X13138928Y-8795976D02*
X13091309Y-8795976D01*
X13091309Y-8795976D02*
X13072262Y-8786452D01*
X13072262Y-8786452D02*
X13062738Y-8767405D01*
X13062738Y-8767405D02*
X13062738Y-8748357D01*
X13062738Y-8748357D02*
X13072262Y-8729310D01*
X13072262Y-8729310D02*
X13091309Y-8719786D01*
X13091309Y-8719786D02*
X13138928Y-8719786D01*
X13138928Y-8719786D02*
X13157976Y-8710262D01*
X13253214Y-8662643D02*
X13253214Y-8862643D01*
X13253214Y-8672167D02*
X13272262Y-8662643D01*
X13272262Y-8662643D02*
X13310357Y-8662643D01*
X13310357Y-8662643D02*
X13329405Y-8672167D01*
X13329405Y-8672167D02*
X13338928Y-8681690D01*
X13338928Y-8681690D02*
X13348452Y-8700738D01*
X13348452Y-8700738D02*
X13348452Y-8757881D01*
X13348452Y-8757881D02*
X13338928Y-8776929D01*
X13338928Y-8776929D02*
X13329405Y-8786452D01*
X13329405Y-8786452D02*
X13310357Y-8795976D01*
X13310357Y-8795976D02*
X13272262Y-8795976D01*
X13272262Y-8795976D02*
X13253214Y-8786452D01*
X13434167Y-8776929D02*
X13443690Y-8786452D01*
X13443690Y-8786452D02*
X13434167Y-8795976D01*
X13434167Y-8795976D02*
X13424643Y-8786452D01*
X13424643Y-8786452D02*
X13434167Y-8776929D01*
X13434167Y-8776929D02*
X13434167Y-8795976D01*
X13434167Y-8672167D02*
X13443690Y-8681690D01*
X13443690Y-8681690D02*
X13434167Y-8691214D01*
X13434167Y-8691214D02*
X13424643Y-8681690D01*
X13424643Y-8681690D02*
X13434167Y-8672167D01*
X13434167Y-8672167D02*
X13434167Y-8691214D01*
M02*
