%TF.GenerationSoftware,KiCad,Pcbnew,(7.0.0-0)*%
%TF.CreationDate,2023-05-15T11:59:24-04:00*%
%TF.ProjectId,4dapter-N64Board-KiCad,34646170-7465-4722-9d4e-3634426f6172,rev?*%
%TF.SameCoordinates,Original*%
%TF.FileFunction,Drillmap*%
%TF.FilePolarity,Positive*%
%FSLAX45Y45*%
G04 Gerber Fmt 4.5, Leading zero omitted, Abs format (unit mm)*
G04 Created by KiCad (PCBNEW (7.0.0-0)) date 2023-05-15 11:59:24*
%MOMM*%
%LPD*%
G01*
G04 APERTURE LIST*
%ADD10C,0.050000*%
%ADD11C,0.200000*%
%ADD12C,0.100000*%
%ADD13C,0.225000*%
G04 APERTURE END LIST*
D10*
X14100000Y-5500000D02*
X14100000Y-8500000D01*
X11850000Y-5500000D02*
X11850000Y-8500000D01*
X14100000Y-8500000D02*
X11850000Y-8500000D01*
X11850000Y-5500000D02*
X14100000Y-5500000D01*
D11*
D12*
X12010750Y-6697500D02*
X12110750Y-6797500D01*
X12110750Y-6697500D02*
X12010750Y-6797500D01*
X12010750Y-6951500D02*
X12110750Y-7051500D01*
X12110750Y-6951500D02*
X12010750Y-7051500D01*
X12010750Y-7205500D02*
X12110750Y-7305500D01*
X12110750Y-7205500D02*
X12010750Y-7305500D01*
D13*
X13033500Y-6599000D02*
G75*
G03*
X13033500Y-6599000I-112500J0D01*
G01*
X13033500Y-6999000D02*
G75*
G03*
X13033500Y-6999000I-112500J0D01*
G01*
X13033500Y-7399000D02*
G75*
G03*
X13033500Y-7399000I-112500J0D01*
G01*
D11*
X12095119Y-8795976D02*
X12095119Y-8595976D01*
X12095119Y-8595976D02*
X12142738Y-8595976D01*
X12142738Y-8595976D02*
X12171309Y-8605500D01*
X12171309Y-8605500D02*
X12190357Y-8624548D01*
X12190357Y-8624548D02*
X12199881Y-8643595D01*
X12199881Y-8643595D02*
X12209405Y-8681690D01*
X12209405Y-8681690D02*
X12209405Y-8710262D01*
X12209405Y-8710262D02*
X12199881Y-8748357D01*
X12199881Y-8748357D02*
X12190357Y-8767405D01*
X12190357Y-8767405D02*
X12171309Y-8786452D01*
X12171309Y-8786452D02*
X12142738Y-8795976D01*
X12142738Y-8795976D02*
X12095119Y-8795976D01*
X12295119Y-8795976D02*
X12295119Y-8662643D01*
X12295119Y-8700738D02*
X12304643Y-8681690D01*
X12304643Y-8681690D02*
X12314167Y-8672167D01*
X12314167Y-8672167D02*
X12333214Y-8662643D01*
X12333214Y-8662643D02*
X12352262Y-8662643D01*
X12418928Y-8795976D02*
X12418928Y-8662643D01*
X12418928Y-8595976D02*
X12409405Y-8605500D01*
X12409405Y-8605500D02*
X12418928Y-8615024D01*
X12418928Y-8615024D02*
X12428452Y-8605500D01*
X12428452Y-8605500D02*
X12418928Y-8595976D01*
X12418928Y-8595976D02*
X12418928Y-8615024D01*
X12542738Y-8795976D02*
X12523690Y-8786452D01*
X12523690Y-8786452D02*
X12514167Y-8767405D01*
X12514167Y-8767405D02*
X12514167Y-8595976D01*
X12647500Y-8795976D02*
X12628452Y-8786452D01*
X12628452Y-8786452D02*
X12618928Y-8767405D01*
X12618928Y-8767405D02*
X12618928Y-8595976D01*
X12843690Y-8795976D02*
X12843690Y-8595976D01*
X12843690Y-8595976D02*
X12910357Y-8738833D01*
X12910357Y-8738833D02*
X12977024Y-8595976D01*
X12977024Y-8595976D02*
X12977024Y-8795976D01*
X13157976Y-8795976D02*
X13157976Y-8691214D01*
X13157976Y-8691214D02*
X13148452Y-8672167D01*
X13148452Y-8672167D02*
X13129405Y-8662643D01*
X13129405Y-8662643D02*
X13091309Y-8662643D01*
X13091309Y-8662643D02*
X13072262Y-8672167D01*
X13157976Y-8786452D02*
X13138928Y-8795976D01*
X13138928Y-8795976D02*
X13091309Y-8795976D01*
X13091309Y-8795976D02*
X13072262Y-8786452D01*
X13072262Y-8786452D02*
X13062738Y-8767405D01*
X13062738Y-8767405D02*
X13062738Y-8748357D01*
X13062738Y-8748357D02*
X13072262Y-8729310D01*
X13072262Y-8729310D02*
X13091309Y-8719786D01*
X13091309Y-8719786D02*
X13138928Y-8719786D01*
X13138928Y-8719786D02*
X13157976Y-8710262D01*
X13253214Y-8662643D02*
X13253214Y-8862643D01*
X13253214Y-8672167D02*
X13272262Y-8662643D01*
X13272262Y-8662643D02*
X13310357Y-8662643D01*
X13310357Y-8662643D02*
X13329405Y-8672167D01*
X13329405Y-8672167D02*
X13338928Y-8681690D01*
X13338928Y-8681690D02*
X13348452Y-8700738D01*
X13348452Y-8700738D02*
X13348452Y-8757881D01*
X13348452Y-8757881D02*
X13338928Y-8776929D01*
X13338928Y-8776929D02*
X13329405Y-8786452D01*
X13329405Y-8786452D02*
X13310357Y-8795976D01*
X13310357Y-8795976D02*
X13272262Y-8795976D01*
X13272262Y-8795976D02*
X13253214Y-8786452D01*
X13434167Y-8776929D02*
X13443690Y-8786452D01*
X13443690Y-8786452D02*
X13434167Y-8795976D01*
X13434167Y-8795976D02*
X13424643Y-8786452D01*
X13424643Y-8786452D02*
X13434167Y-8776929D01*
X13434167Y-8776929D02*
X13434167Y-8795976D01*
X13434167Y-8672167D02*
X13443690Y-8681690D01*
X13443690Y-8681690D02*
X13434167Y-8691214D01*
X13434167Y-8691214D02*
X13424643Y-8681690D01*
X13424643Y-8681690D02*
X13434167Y-8672167D01*
X13434167Y-8672167D02*
X13434167Y-8691214D01*
D12*
X11747500Y-9092500D02*
X11847500Y-9192500D01*
X11847500Y-9092500D02*
X11747500Y-9192500D01*
D11*
X12199881Y-9215976D02*
X12085595Y-9215976D01*
X12142738Y-9215976D02*
X12142738Y-9015976D01*
X12142738Y-9015976D02*
X12123690Y-9044548D01*
X12123690Y-9044548D02*
X12104643Y-9063595D01*
X12104643Y-9063595D02*
X12085595Y-9073119D01*
X12285595Y-9196929D02*
X12295119Y-9206452D01*
X12295119Y-9206452D02*
X12285595Y-9215976D01*
X12285595Y-9215976D02*
X12276071Y-9206452D01*
X12276071Y-9206452D02*
X12285595Y-9196929D01*
X12285595Y-9196929D02*
X12285595Y-9215976D01*
X12418928Y-9015976D02*
X12437976Y-9015976D01*
X12437976Y-9015976D02*
X12457024Y-9025500D01*
X12457024Y-9025500D02*
X12466548Y-9035024D01*
X12466548Y-9035024D02*
X12476071Y-9054071D01*
X12476071Y-9054071D02*
X12485595Y-9092167D01*
X12485595Y-9092167D02*
X12485595Y-9139786D01*
X12485595Y-9139786D02*
X12476071Y-9177881D01*
X12476071Y-9177881D02*
X12466548Y-9196929D01*
X12466548Y-9196929D02*
X12457024Y-9206452D01*
X12457024Y-9206452D02*
X12437976Y-9215976D01*
X12437976Y-9215976D02*
X12418928Y-9215976D01*
X12418928Y-9215976D02*
X12399881Y-9206452D01*
X12399881Y-9206452D02*
X12390357Y-9196929D01*
X12390357Y-9196929D02*
X12380833Y-9177881D01*
X12380833Y-9177881D02*
X12371309Y-9139786D01*
X12371309Y-9139786D02*
X12371309Y-9092167D01*
X12371309Y-9092167D02*
X12380833Y-9054071D01*
X12380833Y-9054071D02*
X12390357Y-9035024D01*
X12390357Y-9035024D02*
X12399881Y-9025500D01*
X12399881Y-9025500D02*
X12418928Y-9015976D01*
X12609405Y-9015976D02*
X12628452Y-9015976D01*
X12628452Y-9015976D02*
X12647500Y-9025500D01*
X12647500Y-9025500D02*
X12657024Y-9035024D01*
X12657024Y-9035024D02*
X12666548Y-9054071D01*
X12666548Y-9054071D02*
X12676071Y-9092167D01*
X12676071Y-9092167D02*
X12676071Y-9139786D01*
X12676071Y-9139786D02*
X12666548Y-9177881D01*
X12666548Y-9177881D02*
X12657024Y-9196929D01*
X12657024Y-9196929D02*
X12647500Y-9206452D01*
X12647500Y-9206452D02*
X12628452Y-9215976D01*
X12628452Y-9215976D02*
X12609405Y-9215976D01*
X12609405Y-9215976D02*
X12590357Y-9206452D01*
X12590357Y-9206452D02*
X12580833Y-9196929D01*
X12580833Y-9196929D02*
X12571309Y-9177881D01*
X12571309Y-9177881D02*
X12561786Y-9139786D01*
X12561786Y-9139786D02*
X12561786Y-9092167D01*
X12561786Y-9092167D02*
X12571309Y-9054071D01*
X12571309Y-9054071D02*
X12580833Y-9035024D01*
X12580833Y-9035024D02*
X12590357Y-9025500D01*
X12590357Y-9025500D02*
X12609405Y-9015976D01*
X12799881Y-9015976D02*
X12818929Y-9015976D01*
X12818929Y-9015976D02*
X12837976Y-9025500D01*
X12837976Y-9025500D02*
X12847500Y-9035024D01*
X12847500Y-9035024D02*
X12857024Y-9054071D01*
X12857024Y-9054071D02*
X12866548Y-9092167D01*
X12866548Y-9092167D02*
X12866548Y-9139786D01*
X12866548Y-9139786D02*
X12857024Y-9177881D01*
X12857024Y-9177881D02*
X12847500Y-9196929D01*
X12847500Y-9196929D02*
X12837976Y-9206452D01*
X12837976Y-9206452D02*
X12818929Y-9215976D01*
X12818929Y-9215976D02*
X12799881Y-9215976D01*
X12799881Y-9215976D02*
X12780833Y-9206452D01*
X12780833Y-9206452D02*
X12771309Y-9196929D01*
X12771309Y-9196929D02*
X12761786Y-9177881D01*
X12761786Y-9177881D02*
X12752262Y-9139786D01*
X12752262Y-9139786D02*
X12752262Y-9092167D01*
X12752262Y-9092167D02*
X12761786Y-9054071D01*
X12761786Y-9054071D02*
X12771309Y-9035024D01*
X12771309Y-9035024D02*
X12780833Y-9025500D01*
X12780833Y-9025500D02*
X12799881Y-9015976D01*
X12952262Y-9215976D02*
X12952262Y-9082643D01*
X12952262Y-9101690D02*
X12961786Y-9092167D01*
X12961786Y-9092167D02*
X12980833Y-9082643D01*
X12980833Y-9082643D02*
X13009405Y-9082643D01*
X13009405Y-9082643D02*
X13028452Y-9092167D01*
X13028452Y-9092167D02*
X13037976Y-9111214D01*
X13037976Y-9111214D02*
X13037976Y-9215976D01*
X13037976Y-9111214D02*
X13047500Y-9092167D01*
X13047500Y-9092167D02*
X13066548Y-9082643D01*
X13066548Y-9082643D02*
X13095119Y-9082643D01*
X13095119Y-9082643D02*
X13114167Y-9092167D01*
X13114167Y-9092167D02*
X13123690Y-9111214D01*
X13123690Y-9111214D02*
X13123690Y-9215976D01*
X13218929Y-9215976D02*
X13218929Y-9082643D01*
X13218929Y-9101690D02*
X13228452Y-9092167D01*
X13228452Y-9092167D02*
X13247500Y-9082643D01*
X13247500Y-9082643D02*
X13276071Y-9082643D01*
X13276071Y-9082643D02*
X13295119Y-9092167D01*
X13295119Y-9092167D02*
X13304643Y-9111214D01*
X13304643Y-9111214D02*
X13304643Y-9215976D01*
X13304643Y-9111214D02*
X13314167Y-9092167D01*
X13314167Y-9092167D02*
X13333214Y-9082643D01*
X13333214Y-9082643D02*
X13361786Y-9082643D01*
X13361786Y-9082643D02*
X13380833Y-9092167D01*
X13380833Y-9092167D02*
X13390357Y-9111214D01*
X13390357Y-9111214D02*
X13390357Y-9215976D01*
X13748452Y-9006452D02*
X13577024Y-9263595D01*
X13973214Y-9015976D02*
X13992262Y-9015976D01*
X13992262Y-9015976D02*
X14011310Y-9025500D01*
X14011310Y-9025500D02*
X14020833Y-9035024D01*
X14020833Y-9035024D02*
X14030357Y-9054071D01*
X14030357Y-9054071D02*
X14039881Y-9092167D01*
X14039881Y-9092167D02*
X14039881Y-9139786D01*
X14039881Y-9139786D02*
X14030357Y-9177881D01*
X14030357Y-9177881D02*
X14020833Y-9196929D01*
X14020833Y-9196929D02*
X14011310Y-9206452D01*
X14011310Y-9206452D02*
X13992262Y-9215976D01*
X13992262Y-9215976D02*
X13973214Y-9215976D01*
X13973214Y-9215976D02*
X13954167Y-9206452D01*
X13954167Y-9206452D02*
X13944643Y-9196929D01*
X13944643Y-9196929D02*
X13935119Y-9177881D01*
X13935119Y-9177881D02*
X13925595Y-9139786D01*
X13925595Y-9139786D02*
X13925595Y-9092167D01*
X13925595Y-9092167D02*
X13935119Y-9054071D01*
X13935119Y-9054071D02*
X13944643Y-9035024D01*
X13944643Y-9035024D02*
X13954167Y-9025500D01*
X13954167Y-9025500D02*
X13973214Y-9015976D01*
X14125595Y-9196929D02*
X14135119Y-9206452D01*
X14135119Y-9206452D02*
X14125595Y-9215976D01*
X14125595Y-9215976D02*
X14116071Y-9206452D01*
X14116071Y-9206452D02*
X14125595Y-9196929D01*
X14125595Y-9196929D02*
X14125595Y-9215976D01*
X14258929Y-9015976D02*
X14277976Y-9015976D01*
X14277976Y-9015976D02*
X14297024Y-9025500D01*
X14297024Y-9025500D02*
X14306548Y-9035024D01*
X14306548Y-9035024D02*
X14316071Y-9054071D01*
X14316071Y-9054071D02*
X14325595Y-9092167D01*
X14325595Y-9092167D02*
X14325595Y-9139786D01*
X14325595Y-9139786D02*
X14316071Y-9177881D01*
X14316071Y-9177881D02*
X14306548Y-9196929D01*
X14306548Y-9196929D02*
X14297024Y-9206452D01*
X14297024Y-9206452D02*
X14277976Y-9215976D01*
X14277976Y-9215976D02*
X14258929Y-9215976D01*
X14258929Y-9215976D02*
X14239881Y-9206452D01*
X14239881Y-9206452D02*
X14230357Y-9196929D01*
X14230357Y-9196929D02*
X14220833Y-9177881D01*
X14220833Y-9177881D02*
X14211310Y-9139786D01*
X14211310Y-9139786D02*
X14211310Y-9092167D01*
X14211310Y-9092167D02*
X14220833Y-9054071D01*
X14220833Y-9054071D02*
X14230357Y-9035024D01*
X14230357Y-9035024D02*
X14239881Y-9025500D01*
X14239881Y-9025500D02*
X14258929Y-9015976D01*
X14392262Y-9015976D02*
X14516071Y-9015976D01*
X14516071Y-9015976D02*
X14449405Y-9092167D01*
X14449405Y-9092167D02*
X14477976Y-9092167D01*
X14477976Y-9092167D02*
X14497024Y-9101690D01*
X14497024Y-9101690D02*
X14506548Y-9111214D01*
X14506548Y-9111214D02*
X14516071Y-9130262D01*
X14516071Y-9130262D02*
X14516071Y-9177881D01*
X14516071Y-9177881D02*
X14506548Y-9196929D01*
X14506548Y-9196929D02*
X14497024Y-9206452D01*
X14497024Y-9206452D02*
X14477976Y-9215976D01*
X14477976Y-9215976D02*
X14420833Y-9215976D01*
X14420833Y-9215976D02*
X14401786Y-9206452D01*
X14401786Y-9206452D02*
X14392262Y-9196929D01*
X14611310Y-9215976D02*
X14649405Y-9215976D01*
X14649405Y-9215976D02*
X14668452Y-9206452D01*
X14668452Y-9206452D02*
X14677976Y-9196929D01*
X14677976Y-9196929D02*
X14697024Y-9168357D01*
X14697024Y-9168357D02*
X14706548Y-9130262D01*
X14706548Y-9130262D02*
X14706548Y-9054071D01*
X14706548Y-9054071D02*
X14697024Y-9035024D01*
X14697024Y-9035024D02*
X14687500Y-9025500D01*
X14687500Y-9025500D02*
X14668452Y-9015976D01*
X14668452Y-9015976D02*
X14630357Y-9015976D01*
X14630357Y-9015976D02*
X14611310Y-9025500D01*
X14611310Y-9025500D02*
X14601786Y-9035024D01*
X14601786Y-9035024D02*
X14592262Y-9054071D01*
X14592262Y-9054071D02*
X14592262Y-9101690D01*
X14592262Y-9101690D02*
X14601786Y-9120738D01*
X14601786Y-9120738D02*
X14611310Y-9130262D01*
X14611310Y-9130262D02*
X14630357Y-9139786D01*
X14630357Y-9139786D02*
X14668452Y-9139786D01*
X14668452Y-9139786D02*
X14687500Y-9130262D01*
X14687500Y-9130262D02*
X14697024Y-9120738D01*
X14697024Y-9120738D02*
X14706548Y-9101690D01*
X14877976Y-9082643D02*
X14877976Y-9215976D01*
X14830357Y-9006452D02*
X14782738Y-9149310D01*
X14782738Y-9149310D02*
X14906548Y-9149310D01*
X14973214Y-9015976D02*
X14973214Y-9054071D01*
X15049405Y-9015976D02*
X15049405Y-9054071D01*
X15312262Y-9292167D02*
X15302738Y-9282643D01*
X15302738Y-9282643D02*
X15283691Y-9254071D01*
X15283691Y-9254071D02*
X15274167Y-9235024D01*
X15274167Y-9235024D02*
X15264643Y-9206452D01*
X15264643Y-9206452D02*
X15255119Y-9158833D01*
X15255119Y-9158833D02*
X15255119Y-9120738D01*
X15255119Y-9120738D02*
X15264643Y-9073119D01*
X15264643Y-9073119D02*
X15274167Y-9044548D01*
X15274167Y-9044548D02*
X15283691Y-9025500D01*
X15283691Y-9025500D02*
X15302738Y-8996929D01*
X15302738Y-8996929D02*
X15312262Y-8987405D01*
X15369405Y-9015976D02*
X15493214Y-9015976D01*
X15493214Y-9015976D02*
X15426548Y-9092167D01*
X15426548Y-9092167D02*
X15455119Y-9092167D01*
X15455119Y-9092167D02*
X15474167Y-9101690D01*
X15474167Y-9101690D02*
X15483691Y-9111214D01*
X15483691Y-9111214D02*
X15493214Y-9130262D01*
X15493214Y-9130262D02*
X15493214Y-9177881D01*
X15493214Y-9177881D02*
X15483691Y-9196929D01*
X15483691Y-9196929D02*
X15474167Y-9206452D01*
X15474167Y-9206452D02*
X15455119Y-9215976D01*
X15455119Y-9215976D02*
X15397976Y-9215976D01*
X15397976Y-9215976D02*
X15378929Y-9206452D01*
X15378929Y-9206452D02*
X15369405Y-9196929D01*
X15698929Y-9215976D02*
X15698929Y-9015976D01*
X15784643Y-9215976D02*
X15784643Y-9111214D01*
X15784643Y-9111214D02*
X15775119Y-9092167D01*
X15775119Y-9092167D02*
X15756072Y-9082643D01*
X15756072Y-9082643D02*
X15727500Y-9082643D01*
X15727500Y-9082643D02*
X15708452Y-9092167D01*
X15708452Y-9092167D02*
X15698929Y-9101690D01*
X15908452Y-9215976D02*
X15889405Y-9206452D01*
X15889405Y-9206452D02*
X15879881Y-9196929D01*
X15879881Y-9196929D02*
X15870357Y-9177881D01*
X15870357Y-9177881D02*
X15870357Y-9120738D01*
X15870357Y-9120738D02*
X15879881Y-9101690D01*
X15879881Y-9101690D02*
X15889405Y-9092167D01*
X15889405Y-9092167D02*
X15908452Y-9082643D01*
X15908452Y-9082643D02*
X15937024Y-9082643D01*
X15937024Y-9082643D02*
X15956072Y-9092167D01*
X15956072Y-9092167D02*
X15965595Y-9101690D01*
X15965595Y-9101690D02*
X15975119Y-9120738D01*
X15975119Y-9120738D02*
X15975119Y-9177881D01*
X15975119Y-9177881D02*
X15965595Y-9196929D01*
X15965595Y-9196929D02*
X15956072Y-9206452D01*
X15956072Y-9206452D02*
X15937024Y-9215976D01*
X15937024Y-9215976D02*
X15908452Y-9215976D01*
X16089405Y-9215976D02*
X16070357Y-9206452D01*
X16070357Y-9206452D02*
X16060833Y-9187405D01*
X16060833Y-9187405D02*
X16060833Y-9015976D01*
X16241786Y-9206452D02*
X16222738Y-9215976D01*
X16222738Y-9215976D02*
X16184643Y-9215976D01*
X16184643Y-9215976D02*
X16165595Y-9206452D01*
X16165595Y-9206452D02*
X16156072Y-9187405D01*
X16156072Y-9187405D02*
X16156072Y-9111214D01*
X16156072Y-9111214D02*
X16165595Y-9092167D01*
X16165595Y-9092167D02*
X16184643Y-9082643D01*
X16184643Y-9082643D02*
X16222738Y-9082643D01*
X16222738Y-9082643D02*
X16241786Y-9092167D01*
X16241786Y-9092167D02*
X16251310Y-9111214D01*
X16251310Y-9111214D02*
X16251310Y-9130262D01*
X16251310Y-9130262D02*
X16156072Y-9149310D01*
X16327500Y-9206452D02*
X16346548Y-9215976D01*
X16346548Y-9215976D02*
X16384643Y-9215976D01*
X16384643Y-9215976D02*
X16403691Y-9206452D01*
X16403691Y-9206452D02*
X16413214Y-9187405D01*
X16413214Y-9187405D02*
X16413214Y-9177881D01*
X16413214Y-9177881D02*
X16403691Y-9158833D01*
X16403691Y-9158833D02*
X16384643Y-9149310D01*
X16384643Y-9149310D02*
X16356072Y-9149310D01*
X16356072Y-9149310D02*
X16337024Y-9139786D01*
X16337024Y-9139786D02*
X16327500Y-9120738D01*
X16327500Y-9120738D02*
X16327500Y-9111214D01*
X16327500Y-9111214D02*
X16337024Y-9092167D01*
X16337024Y-9092167D02*
X16356072Y-9082643D01*
X16356072Y-9082643D02*
X16384643Y-9082643D01*
X16384643Y-9082643D02*
X16403691Y-9092167D01*
X16479881Y-9292167D02*
X16489405Y-9282643D01*
X16489405Y-9282643D02*
X16508453Y-9254071D01*
X16508453Y-9254071D02*
X16517976Y-9235024D01*
X16517976Y-9235024D02*
X16527500Y-9206452D01*
X16527500Y-9206452D02*
X16537024Y-9158833D01*
X16537024Y-9158833D02*
X16537024Y-9120738D01*
X16537024Y-9120738D02*
X16527500Y-9073119D01*
X16527500Y-9073119D02*
X16517976Y-9044548D01*
X16517976Y-9044548D02*
X16508453Y-9025500D01*
X16508453Y-9025500D02*
X16489405Y-8996929D01*
X16489405Y-8996929D02*
X16479881Y-8987405D01*
X11847500Y-9406500D02*
G75*
G03*
X11847500Y-9406500I-100000J0D01*
G01*
X12085595Y-9299024D02*
X12095119Y-9289500D01*
X12095119Y-9289500D02*
X12114167Y-9279976D01*
X12114167Y-9279976D02*
X12161786Y-9279976D01*
X12161786Y-9279976D02*
X12180833Y-9289500D01*
X12180833Y-9289500D02*
X12190357Y-9299024D01*
X12190357Y-9299024D02*
X12199881Y-9318071D01*
X12199881Y-9318071D02*
X12199881Y-9337119D01*
X12199881Y-9337119D02*
X12190357Y-9365690D01*
X12190357Y-9365690D02*
X12076071Y-9479976D01*
X12076071Y-9479976D02*
X12199881Y-9479976D01*
X12285595Y-9460929D02*
X12295119Y-9470452D01*
X12295119Y-9470452D02*
X12285595Y-9479976D01*
X12285595Y-9479976D02*
X12276071Y-9470452D01*
X12276071Y-9470452D02*
X12285595Y-9460929D01*
X12285595Y-9460929D02*
X12285595Y-9479976D01*
X12371309Y-9299024D02*
X12380833Y-9289500D01*
X12380833Y-9289500D02*
X12399881Y-9279976D01*
X12399881Y-9279976D02*
X12447500Y-9279976D01*
X12447500Y-9279976D02*
X12466548Y-9289500D01*
X12466548Y-9289500D02*
X12476071Y-9299024D01*
X12476071Y-9299024D02*
X12485595Y-9318071D01*
X12485595Y-9318071D02*
X12485595Y-9337119D01*
X12485595Y-9337119D02*
X12476071Y-9365690D01*
X12476071Y-9365690D02*
X12361786Y-9479976D01*
X12361786Y-9479976D02*
X12485595Y-9479976D01*
X12666548Y-9279976D02*
X12571309Y-9279976D01*
X12571309Y-9279976D02*
X12561786Y-9375214D01*
X12561786Y-9375214D02*
X12571309Y-9365690D01*
X12571309Y-9365690D02*
X12590357Y-9356167D01*
X12590357Y-9356167D02*
X12637976Y-9356167D01*
X12637976Y-9356167D02*
X12657024Y-9365690D01*
X12657024Y-9365690D02*
X12666548Y-9375214D01*
X12666548Y-9375214D02*
X12676071Y-9394262D01*
X12676071Y-9394262D02*
X12676071Y-9441881D01*
X12676071Y-9441881D02*
X12666548Y-9460929D01*
X12666548Y-9460929D02*
X12657024Y-9470452D01*
X12657024Y-9470452D02*
X12637976Y-9479976D01*
X12637976Y-9479976D02*
X12590357Y-9479976D01*
X12590357Y-9479976D02*
X12571309Y-9470452D01*
X12571309Y-9470452D02*
X12561786Y-9460929D01*
X12799881Y-9279976D02*
X12818929Y-9279976D01*
X12818929Y-9279976D02*
X12837976Y-9289500D01*
X12837976Y-9289500D02*
X12847500Y-9299024D01*
X12847500Y-9299024D02*
X12857024Y-9318071D01*
X12857024Y-9318071D02*
X12866548Y-9356167D01*
X12866548Y-9356167D02*
X12866548Y-9403786D01*
X12866548Y-9403786D02*
X12857024Y-9441881D01*
X12857024Y-9441881D02*
X12847500Y-9460929D01*
X12847500Y-9460929D02*
X12837976Y-9470452D01*
X12837976Y-9470452D02*
X12818929Y-9479976D01*
X12818929Y-9479976D02*
X12799881Y-9479976D01*
X12799881Y-9479976D02*
X12780833Y-9470452D01*
X12780833Y-9470452D02*
X12771309Y-9460929D01*
X12771309Y-9460929D02*
X12761786Y-9441881D01*
X12761786Y-9441881D02*
X12752262Y-9403786D01*
X12752262Y-9403786D02*
X12752262Y-9356167D01*
X12752262Y-9356167D02*
X12761786Y-9318071D01*
X12761786Y-9318071D02*
X12771309Y-9299024D01*
X12771309Y-9299024D02*
X12780833Y-9289500D01*
X12780833Y-9289500D02*
X12799881Y-9279976D01*
X12952262Y-9479976D02*
X12952262Y-9346643D01*
X12952262Y-9365690D02*
X12961786Y-9356167D01*
X12961786Y-9356167D02*
X12980833Y-9346643D01*
X12980833Y-9346643D02*
X13009405Y-9346643D01*
X13009405Y-9346643D02*
X13028452Y-9356167D01*
X13028452Y-9356167D02*
X13037976Y-9375214D01*
X13037976Y-9375214D02*
X13037976Y-9479976D01*
X13037976Y-9375214D02*
X13047500Y-9356167D01*
X13047500Y-9356167D02*
X13066548Y-9346643D01*
X13066548Y-9346643D02*
X13095119Y-9346643D01*
X13095119Y-9346643D02*
X13114167Y-9356167D01*
X13114167Y-9356167D02*
X13123690Y-9375214D01*
X13123690Y-9375214D02*
X13123690Y-9479976D01*
X13218929Y-9479976D02*
X13218929Y-9346643D01*
X13218929Y-9365690D02*
X13228452Y-9356167D01*
X13228452Y-9356167D02*
X13247500Y-9346643D01*
X13247500Y-9346643D02*
X13276071Y-9346643D01*
X13276071Y-9346643D02*
X13295119Y-9356167D01*
X13295119Y-9356167D02*
X13304643Y-9375214D01*
X13304643Y-9375214D02*
X13304643Y-9479976D01*
X13304643Y-9375214D02*
X13314167Y-9356167D01*
X13314167Y-9356167D02*
X13333214Y-9346643D01*
X13333214Y-9346643D02*
X13361786Y-9346643D01*
X13361786Y-9346643D02*
X13380833Y-9356167D01*
X13380833Y-9356167D02*
X13390357Y-9375214D01*
X13390357Y-9375214D02*
X13390357Y-9479976D01*
X13748452Y-9270452D02*
X13577024Y-9527595D01*
X13973214Y-9279976D02*
X13992262Y-9279976D01*
X13992262Y-9279976D02*
X14011310Y-9289500D01*
X14011310Y-9289500D02*
X14020833Y-9299024D01*
X14020833Y-9299024D02*
X14030357Y-9318071D01*
X14030357Y-9318071D02*
X14039881Y-9356167D01*
X14039881Y-9356167D02*
X14039881Y-9403786D01*
X14039881Y-9403786D02*
X14030357Y-9441881D01*
X14030357Y-9441881D02*
X14020833Y-9460929D01*
X14020833Y-9460929D02*
X14011310Y-9470452D01*
X14011310Y-9470452D02*
X13992262Y-9479976D01*
X13992262Y-9479976D02*
X13973214Y-9479976D01*
X13973214Y-9479976D02*
X13954167Y-9470452D01*
X13954167Y-9470452D02*
X13944643Y-9460929D01*
X13944643Y-9460929D02*
X13935119Y-9441881D01*
X13935119Y-9441881D02*
X13925595Y-9403786D01*
X13925595Y-9403786D02*
X13925595Y-9356167D01*
X13925595Y-9356167D02*
X13935119Y-9318071D01*
X13935119Y-9318071D02*
X13944643Y-9299024D01*
X13944643Y-9299024D02*
X13954167Y-9289500D01*
X13954167Y-9289500D02*
X13973214Y-9279976D01*
X14125595Y-9460929D02*
X14135119Y-9470452D01*
X14135119Y-9470452D02*
X14125595Y-9479976D01*
X14125595Y-9479976D02*
X14116071Y-9470452D01*
X14116071Y-9470452D02*
X14125595Y-9460929D01*
X14125595Y-9460929D02*
X14125595Y-9479976D01*
X14258929Y-9279976D02*
X14277976Y-9279976D01*
X14277976Y-9279976D02*
X14297024Y-9289500D01*
X14297024Y-9289500D02*
X14306548Y-9299024D01*
X14306548Y-9299024D02*
X14316071Y-9318071D01*
X14316071Y-9318071D02*
X14325595Y-9356167D01*
X14325595Y-9356167D02*
X14325595Y-9403786D01*
X14325595Y-9403786D02*
X14316071Y-9441881D01*
X14316071Y-9441881D02*
X14306548Y-9460929D01*
X14306548Y-9460929D02*
X14297024Y-9470452D01*
X14297024Y-9470452D02*
X14277976Y-9479976D01*
X14277976Y-9479976D02*
X14258929Y-9479976D01*
X14258929Y-9479976D02*
X14239881Y-9470452D01*
X14239881Y-9470452D02*
X14230357Y-9460929D01*
X14230357Y-9460929D02*
X14220833Y-9441881D01*
X14220833Y-9441881D02*
X14211310Y-9403786D01*
X14211310Y-9403786D02*
X14211310Y-9356167D01*
X14211310Y-9356167D02*
X14220833Y-9318071D01*
X14220833Y-9318071D02*
X14230357Y-9299024D01*
X14230357Y-9299024D02*
X14239881Y-9289500D01*
X14239881Y-9289500D02*
X14258929Y-9279976D01*
X14439881Y-9365690D02*
X14420833Y-9356167D01*
X14420833Y-9356167D02*
X14411310Y-9346643D01*
X14411310Y-9346643D02*
X14401786Y-9327595D01*
X14401786Y-9327595D02*
X14401786Y-9318071D01*
X14401786Y-9318071D02*
X14411310Y-9299024D01*
X14411310Y-9299024D02*
X14420833Y-9289500D01*
X14420833Y-9289500D02*
X14439881Y-9279976D01*
X14439881Y-9279976D02*
X14477976Y-9279976D01*
X14477976Y-9279976D02*
X14497024Y-9289500D01*
X14497024Y-9289500D02*
X14506548Y-9299024D01*
X14506548Y-9299024D02*
X14516071Y-9318071D01*
X14516071Y-9318071D02*
X14516071Y-9327595D01*
X14516071Y-9327595D02*
X14506548Y-9346643D01*
X14506548Y-9346643D02*
X14497024Y-9356167D01*
X14497024Y-9356167D02*
X14477976Y-9365690D01*
X14477976Y-9365690D02*
X14439881Y-9365690D01*
X14439881Y-9365690D02*
X14420833Y-9375214D01*
X14420833Y-9375214D02*
X14411310Y-9384738D01*
X14411310Y-9384738D02*
X14401786Y-9403786D01*
X14401786Y-9403786D02*
X14401786Y-9441881D01*
X14401786Y-9441881D02*
X14411310Y-9460929D01*
X14411310Y-9460929D02*
X14420833Y-9470452D01*
X14420833Y-9470452D02*
X14439881Y-9479976D01*
X14439881Y-9479976D02*
X14477976Y-9479976D01*
X14477976Y-9479976D02*
X14497024Y-9470452D01*
X14497024Y-9470452D02*
X14506548Y-9460929D01*
X14506548Y-9460929D02*
X14516071Y-9441881D01*
X14516071Y-9441881D02*
X14516071Y-9403786D01*
X14516071Y-9403786D02*
X14506548Y-9384738D01*
X14506548Y-9384738D02*
X14497024Y-9375214D01*
X14497024Y-9375214D02*
X14477976Y-9365690D01*
X14630357Y-9365690D02*
X14611310Y-9356167D01*
X14611310Y-9356167D02*
X14601786Y-9346643D01*
X14601786Y-9346643D02*
X14592262Y-9327595D01*
X14592262Y-9327595D02*
X14592262Y-9318071D01*
X14592262Y-9318071D02*
X14601786Y-9299024D01*
X14601786Y-9299024D02*
X14611310Y-9289500D01*
X14611310Y-9289500D02*
X14630357Y-9279976D01*
X14630357Y-9279976D02*
X14668452Y-9279976D01*
X14668452Y-9279976D02*
X14687500Y-9289500D01*
X14687500Y-9289500D02*
X14697024Y-9299024D01*
X14697024Y-9299024D02*
X14706548Y-9318071D01*
X14706548Y-9318071D02*
X14706548Y-9327595D01*
X14706548Y-9327595D02*
X14697024Y-9346643D01*
X14697024Y-9346643D02*
X14687500Y-9356167D01*
X14687500Y-9356167D02*
X14668452Y-9365690D01*
X14668452Y-9365690D02*
X14630357Y-9365690D01*
X14630357Y-9365690D02*
X14611310Y-9375214D01*
X14611310Y-9375214D02*
X14601786Y-9384738D01*
X14601786Y-9384738D02*
X14592262Y-9403786D01*
X14592262Y-9403786D02*
X14592262Y-9441881D01*
X14592262Y-9441881D02*
X14601786Y-9460929D01*
X14601786Y-9460929D02*
X14611310Y-9470452D01*
X14611310Y-9470452D02*
X14630357Y-9479976D01*
X14630357Y-9479976D02*
X14668452Y-9479976D01*
X14668452Y-9479976D02*
X14687500Y-9470452D01*
X14687500Y-9470452D02*
X14697024Y-9460929D01*
X14697024Y-9460929D02*
X14706548Y-9441881D01*
X14706548Y-9441881D02*
X14706548Y-9403786D01*
X14706548Y-9403786D02*
X14697024Y-9384738D01*
X14697024Y-9384738D02*
X14687500Y-9375214D01*
X14687500Y-9375214D02*
X14668452Y-9365690D01*
X14877976Y-9279976D02*
X14839881Y-9279976D01*
X14839881Y-9279976D02*
X14820833Y-9289500D01*
X14820833Y-9289500D02*
X14811310Y-9299024D01*
X14811310Y-9299024D02*
X14792262Y-9327595D01*
X14792262Y-9327595D02*
X14782738Y-9365690D01*
X14782738Y-9365690D02*
X14782738Y-9441881D01*
X14782738Y-9441881D02*
X14792262Y-9460929D01*
X14792262Y-9460929D02*
X14801786Y-9470452D01*
X14801786Y-9470452D02*
X14820833Y-9479976D01*
X14820833Y-9479976D02*
X14858929Y-9479976D01*
X14858929Y-9479976D02*
X14877976Y-9470452D01*
X14877976Y-9470452D02*
X14887500Y-9460929D01*
X14887500Y-9460929D02*
X14897024Y-9441881D01*
X14897024Y-9441881D02*
X14897024Y-9394262D01*
X14897024Y-9394262D02*
X14887500Y-9375214D01*
X14887500Y-9375214D02*
X14877976Y-9365690D01*
X14877976Y-9365690D02*
X14858929Y-9356167D01*
X14858929Y-9356167D02*
X14820833Y-9356167D01*
X14820833Y-9356167D02*
X14801786Y-9365690D01*
X14801786Y-9365690D02*
X14792262Y-9375214D01*
X14792262Y-9375214D02*
X14782738Y-9394262D01*
X14973214Y-9279976D02*
X14973214Y-9318071D01*
X15049405Y-9279976D02*
X15049405Y-9318071D01*
X15312262Y-9556167D02*
X15302738Y-9546643D01*
X15302738Y-9546643D02*
X15283691Y-9518071D01*
X15283691Y-9518071D02*
X15274167Y-9499024D01*
X15274167Y-9499024D02*
X15264643Y-9470452D01*
X15264643Y-9470452D02*
X15255119Y-9422833D01*
X15255119Y-9422833D02*
X15255119Y-9384738D01*
X15255119Y-9384738D02*
X15264643Y-9337119D01*
X15264643Y-9337119D02*
X15274167Y-9308548D01*
X15274167Y-9308548D02*
X15283691Y-9289500D01*
X15283691Y-9289500D02*
X15302738Y-9260929D01*
X15302738Y-9260929D02*
X15312262Y-9251405D01*
X15369405Y-9279976D02*
X15493214Y-9279976D01*
X15493214Y-9279976D02*
X15426548Y-9356167D01*
X15426548Y-9356167D02*
X15455119Y-9356167D01*
X15455119Y-9356167D02*
X15474167Y-9365690D01*
X15474167Y-9365690D02*
X15483691Y-9375214D01*
X15483691Y-9375214D02*
X15493214Y-9394262D01*
X15493214Y-9394262D02*
X15493214Y-9441881D01*
X15493214Y-9441881D02*
X15483691Y-9460929D01*
X15483691Y-9460929D02*
X15474167Y-9470452D01*
X15474167Y-9470452D02*
X15455119Y-9479976D01*
X15455119Y-9479976D02*
X15397976Y-9479976D01*
X15397976Y-9479976D02*
X15378929Y-9470452D01*
X15378929Y-9470452D02*
X15369405Y-9460929D01*
X15698929Y-9479976D02*
X15698929Y-9279976D01*
X15784643Y-9479976D02*
X15784643Y-9375214D01*
X15784643Y-9375214D02*
X15775119Y-9356167D01*
X15775119Y-9356167D02*
X15756072Y-9346643D01*
X15756072Y-9346643D02*
X15727500Y-9346643D01*
X15727500Y-9346643D02*
X15708452Y-9356167D01*
X15708452Y-9356167D02*
X15698929Y-9365690D01*
X15908452Y-9479976D02*
X15889405Y-9470452D01*
X15889405Y-9470452D02*
X15879881Y-9460929D01*
X15879881Y-9460929D02*
X15870357Y-9441881D01*
X15870357Y-9441881D02*
X15870357Y-9384738D01*
X15870357Y-9384738D02*
X15879881Y-9365690D01*
X15879881Y-9365690D02*
X15889405Y-9356167D01*
X15889405Y-9356167D02*
X15908452Y-9346643D01*
X15908452Y-9346643D02*
X15937024Y-9346643D01*
X15937024Y-9346643D02*
X15956072Y-9356167D01*
X15956072Y-9356167D02*
X15965595Y-9365690D01*
X15965595Y-9365690D02*
X15975119Y-9384738D01*
X15975119Y-9384738D02*
X15975119Y-9441881D01*
X15975119Y-9441881D02*
X15965595Y-9460929D01*
X15965595Y-9460929D02*
X15956072Y-9470452D01*
X15956072Y-9470452D02*
X15937024Y-9479976D01*
X15937024Y-9479976D02*
X15908452Y-9479976D01*
X16089405Y-9479976D02*
X16070357Y-9470452D01*
X16070357Y-9470452D02*
X16060833Y-9451405D01*
X16060833Y-9451405D02*
X16060833Y-9279976D01*
X16241786Y-9470452D02*
X16222738Y-9479976D01*
X16222738Y-9479976D02*
X16184643Y-9479976D01*
X16184643Y-9479976D02*
X16165595Y-9470452D01*
X16165595Y-9470452D02*
X16156072Y-9451405D01*
X16156072Y-9451405D02*
X16156072Y-9375214D01*
X16156072Y-9375214D02*
X16165595Y-9356167D01*
X16165595Y-9356167D02*
X16184643Y-9346643D01*
X16184643Y-9346643D02*
X16222738Y-9346643D01*
X16222738Y-9346643D02*
X16241786Y-9356167D01*
X16241786Y-9356167D02*
X16251310Y-9375214D01*
X16251310Y-9375214D02*
X16251310Y-9394262D01*
X16251310Y-9394262D02*
X16156072Y-9413310D01*
X16327500Y-9470452D02*
X16346548Y-9479976D01*
X16346548Y-9479976D02*
X16384643Y-9479976D01*
X16384643Y-9479976D02*
X16403691Y-9470452D01*
X16403691Y-9470452D02*
X16413214Y-9451405D01*
X16413214Y-9451405D02*
X16413214Y-9441881D01*
X16413214Y-9441881D02*
X16403691Y-9422833D01*
X16403691Y-9422833D02*
X16384643Y-9413310D01*
X16384643Y-9413310D02*
X16356072Y-9413310D01*
X16356072Y-9413310D02*
X16337024Y-9403786D01*
X16337024Y-9403786D02*
X16327500Y-9384738D01*
X16327500Y-9384738D02*
X16327500Y-9375214D01*
X16327500Y-9375214D02*
X16337024Y-9356167D01*
X16337024Y-9356167D02*
X16356072Y-9346643D01*
X16356072Y-9346643D02*
X16384643Y-9346643D01*
X16384643Y-9346643D02*
X16403691Y-9356167D01*
X16479881Y-9556167D02*
X16489405Y-9546643D01*
X16489405Y-9546643D02*
X16508453Y-9518071D01*
X16508453Y-9518071D02*
X16517976Y-9499024D01*
X16517976Y-9499024D02*
X16527500Y-9470452D01*
X16527500Y-9470452D02*
X16537024Y-9422833D01*
X16537024Y-9422833D02*
X16537024Y-9384738D01*
X16537024Y-9384738D02*
X16527500Y-9337119D01*
X16527500Y-9337119D02*
X16517976Y-9308548D01*
X16517976Y-9308548D02*
X16508453Y-9289500D01*
X16508453Y-9289500D02*
X16489405Y-9260929D01*
X16489405Y-9260929D02*
X16479881Y-9251405D01*
M02*
