%TF.GenerationSoftware,KiCad,Pcbnew,(7.0.0-0)*%
%TF.CreationDate,2023-05-15T11:59:22-04:00*%
%TF.ProjectId,4dapter-N64Board-KiCad,34646170-7465-4722-9d4e-3634426f6172,rev?*%
%TF.SameCoordinates,Original*%
%TF.FileFunction,Legend,Top*%
%TF.FilePolarity,Positive*%
%FSLAX46Y46*%
G04 Gerber Fmt 4.6, Leading zero omitted, Abs format (unit mm)*
G04 Created by KiCad (PCBNEW (7.0.0-0)) date 2023-05-15 11:59:22*
%MOMM*%
%LPD*%
G01*
G04 APERTURE LIST*
%ADD10C,0.150000*%
%ADD11C,0.120000*%
G04 APERTURE END LIST*
D10*
%TO.C,U3*%
X133172619Y-66095714D02*
X134172619Y-66095714D01*
X134172619Y-66095714D02*
X133172619Y-66667142D01*
X133172619Y-66667142D02*
X134172619Y-66667142D01*
X134172619Y-67571904D02*
X134172619Y-67381428D01*
X134172619Y-67381428D02*
X134125000Y-67286190D01*
X134125000Y-67286190D02*
X134077380Y-67238571D01*
X134077380Y-67238571D02*
X133934523Y-67143333D01*
X133934523Y-67143333D02*
X133744047Y-67095714D01*
X133744047Y-67095714D02*
X133363095Y-67095714D01*
X133363095Y-67095714D02*
X133267857Y-67143333D01*
X133267857Y-67143333D02*
X133220238Y-67190952D01*
X133220238Y-67190952D02*
X133172619Y-67286190D01*
X133172619Y-67286190D02*
X133172619Y-67476666D01*
X133172619Y-67476666D02*
X133220238Y-67571904D01*
X133220238Y-67571904D02*
X133267857Y-67619523D01*
X133267857Y-67619523D02*
X133363095Y-67667142D01*
X133363095Y-67667142D02*
X133601190Y-67667142D01*
X133601190Y-67667142D02*
X133696428Y-67619523D01*
X133696428Y-67619523D02*
X133744047Y-67571904D01*
X133744047Y-67571904D02*
X133791666Y-67476666D01*
X133791666Y-67476666D02*
X133791666Y-67286190D01*
X133791666Y-67286190D02*
X133744047Y-67190952D01*
X133744047Y-67190952D02*
X133696428Y-67143333D01*
X133696428Y-67143333D02*
X133601190Y-67095714D01*
X133839285Y-68524285D02*
X133172619Y-68524285D01*
X134220238Y-68286190D02*
X133505952Y-68048095D01*
X133505952Y-68048095D02*
X133505952Y-68667142D01*
X133220238Y-69600476D02*
X133172619Y-69743333D01*
X133172619Y-69743333D02*
X133172619Y-69981428D01*
X133172619Y-69981428D02*
X133220238Y-70076666D01*
X133220238Y-70076666D02*
X133267857Y-70124285D01*
X133267857Y-70124285D02*
X133363095Y-70171904D01*
X133363095Y-70171904D02*
X133458333Y-70171904D01*
X133458333Y-70171904D02*
X133553571Y-70124285D01*
X133553571Y-70124285D02*
X133601190Y-70076666D01*
X133601190Y-70076666D02*
X133648809Y-69981428D01*
X133648809Y-69981428D02*
X133696428Y-69790952D01*
X133696428Y-69790952D02*
X133744047Y-69695714D01*
X133744047Y-69695714D02*
X133791666Y-69648095D01*
X133791666Y-69648095D02*
X133886904Y-69600476D01*
X133886904Y-69600476D02*
X133982142Y-69600476D01*
X133982142Y-69600476D02*
X134077380Y-69648095D01*
X134077380Y-69648095D02*
X134125000Y-69695714D01*
X134125000Y-69695714D02*
X134172619Y-69790952D01*
X134172619Y-69790952D02*
X134172619Y-70029047D01*
X134172619Y-70029047D02*
X134125000Y-70171904D01*
X133172619Y-70743333D02*
X133220238Y-70648095D01*
X133220238Y-70648095D02*
X133267857Y-70600476D01*
X133267857Y-70600476D02*
X133363095Y-70552857D01*
X133363095Y-70552857D02*
X133648809Y-70552857D01*
X133648809Y-70552857D02*
X133744047Y-70600476D01*
X133744047Y-70600476D02*
X133791666Y-70648095D01*
X133791666Y-70648095D02*
X133839285Y-70743333D01*
X133839285Y-70743333D02*
X133839285Y-70886190D01*
X133839285Y-70886190D02*
X133791666Y-70981428D01*
X133791666Y-70981428D02*
X133744047Y-71029047D01*
X133744047Y-71029047D02*
X133648809Y-71076666D01*
X133648809Y-71076666D02*
X133363095Y-71076666D01*
X133363095Y-71076666D02*
X133267857Y-71029047D01*
X133267857Y-71029047D02*
X133220238Y-70981428D01*
X133220238Y-70981428D02*
X133172619Y-70886190D01*
X133172619Y-70886190D02*
X133172619Y-70743333D01*
X133220238Y-71933809D02*
X133172619Y-71838571D01*
X133172619Y-71838571D02*
X133172619Y-71648095D01*
X133172619Y-71648095D02*
X133220238Y-71552857D01*
X133220238Y-71552857D02*
X133267857Y-71505238D01*
X133267857Y-71505238D02*
X133363095Y-71457619D01*
X133363095Y-71457619D02*
X133648809Y-71457619D01*
X133648809Y-71457619D02*
X133744047Y-71505238D01*
X133744047Y-71505238D02*
X133791666Y-71552857D01*
X133791666Y-71552857D02*
X133839285Y-71648095D01*
X133839285Y-71648095D02*
X133839285Y-71838571D01*
X133839285Y-71838571D02*
X133791666Y-71933809D01*
X133172619Y-72362381D02*
X134172619Y-72362381D01*
X133553571Y-72457619D02*
X133172619Y-72743333D01*
X133839285Y-72743333D02*
X133458333Y-72362381D01*
X133220238Y-73552857D02*
X133172619Y-73457619D01*
X133172619Y-73457619D02*
X133172619Y-73267143D01*
X133172619Y-73267143D02*
X133220238Y-73171905D01*
X133220238Y-73171905D02*
X133315476Y-73124286D01*
X133315476Y-73124286D02*
X133696428Y-73124286D01*
X133696428Y-73124286D02*
X133791666Y-73171905D01*
X133791666Y-73171905D02*
X133839285Y-73267143D01*
X133839285Y-73267143D02*
X133839285Y-73457619D01*
X133839285Y-73457619D02*
X133791666Y-73552857D01*
X133791666Y-73552857D02*
X133696428Y-73600476D01*
X133696428Y-73600476D02*
X133601190Y-73600476D01*
X133601190Y-73600476D02*
X133505952Y-73124286D01*
X133839285Y-73886191D02*
X133839285Y-74267143D01*
X134172619Y-74029048D02*
X133315476Y-74029048D01*
X133315476Y-74029048D02*
X133220238Y-74076667D01*
X133220238Y-74076667D02*
X133172619Y-74171905D01*
X133172619Y-74171905D02*
X133172619Y-74267143D01*
D11*
X128950000Y-59300000D02*
X122750000Y-59300000D01*
X122750000Y-59300000D02*
X122750000Y-80700000D01*
X131648813Y-65693000D02*
X131648813Y-66193000D01*
X131215800Y-65943000D02*
X131648813Y-65693000D01*
X131648813Y-66193000D02*
X131215800Y-65943000D01*
X128950000Y-80700000D02*
X122750000Y-80700000D01*
X128950000Y-80700000D02*
G75*
G03*
X128950000Y-59300000I0J10700000D01*
G01*
%TO.C,REF\u002A\u002A*%
X119277500Y-66145000D02*
X120607500Y-66145000D01*
X119277500Y-67475000D02*
X119277500Y-66145000D01*
X119277500Y-68745000D02*
X119277500Y-73885000D01*
X119277500Y-68745000D02*
X121937500Y-68745000D01*
X119277500Y-73885000D02*
X121937500Y-73885000D01*
X121937500Y-68745000D02*
X121937500Y-73885000D01*
%TD*%
M02*
