%TF.GenerationSoftware,KiCad,Pcbnew,(7.0.0-0)*%
%TF.CreationDate,2023-05-15T11:59:22-04:00*%
%TF.ProjectId,4dapter-N64Board-KiCad,34646170-7465-4722-9d4e-3634426f6172,rev?*%
%TF.SameCoordinates,Original*%
%TF.FileFunction,Copper,L2,Bot*%
%TF.FilePolarity,Positive*%
%FSLAX46Y46*%
G04 Gerber Fmt 4.6, Leading zero omitted, Abs format (unit mm)*
G04 Created by KiCad (PCBNEW (7.0.0-0)) date 2023-05-15 11:59:22*
%MOMM*%
%LPD*%
G01*
G04 APERTURE LIST*
%ADD10C,0.300000*%
%TA.AperFunction,NonConductor*%
%ADD11C,0.300000*%
%TD*%
%TA.AperFunction,NonConductor*%
%ADD12C,0.200000*%
%TD*%
%TA.AperFunction,ComponentPad*%
%ADD13C,3.000000*%
%TD*%
%TA.AperFunction,ComponentPad*%
%ADD14R,1.700000X1.700000*%
%TD*%
%TA.AperFunction,ComponentPad*%
%ADD15O,1.700000X1.700000*%
%TD*%
G04 APERTURE END LIST*
D10*
D11*
X148715871Y-73664285D02*
X148715871Y-72735713D01*
X148715871Y-72735713D02*
X149287300Y-73235713D01*
X149287300Y-73235713D02*
X149287300Y-73021428D01*
X149287300Y-73021428D02*
X149358728Y-72878571D01*
X149358728Y-72878571D02*
X149430157Y-72807142D01*
X149430157Y-72807142D02*
X149573014Y-72735713D01*
X149573014Y-72735713D02*
X149930157Y-72735713D01*
X149930157Y-72735713D02*
X150073014Y-72807142D01*
X150073014Y-72807142D02*
X150144442Y-72878571D01*
X150144442Y-72878571D02*
X150215871Y-73021428D01*
X150215871Y-73021428D02*
X150215871Y-73449999D01*
X150215871Y-73449999D02*
X150144442Y-73592856D01*
X150144442Y-73592856D02*
X150073014Y-73664285D01*
X148715871Y-71807142D02*
X148715871Y-71664285D01*
X148715871Y-71664285D02*
X148787300Y-71521428D01*
X148787300Y-71521428D02*
X148858728Y-71450000D01*
X148858728Y-71450000D02*
X149001585Y-71378571D01*
X149001585Y-71378571D02*
X149287300Y-71307142D01*
X149287300Y-71307142D02*
X149644442Y-71307142D01*
X149644442Y-71307142D02*
X149930157Y-71378571D01*
X149930157Y-71378571D02*
X150073014Y-71450000D01*
X150073014Y-71450000D02*
X150144442Y-71521428D01*
X150144442Y-71521428D02*
X150215871Y-71664285D01*
X150215871Y-71664285D02*
X150215871Y-71807142D01*
X150215871Y-71807142D02*
X150144442Y-71950000D01*
X150144442Y-71950000D02*
X150073014Y-72021428D01*
X150073014Y-72021428D02*
X149930157Y-72092857D01*
X149930157Y-72092857D02*
X149644442Y-72164285D01*
X149644442Y-72164285D02*
X149287300Y-72164285D01*
X149287300Y-72164285D02*
X149001585Y-72092857D01*
X149001585Y-72092857D02*
X148858728Y-72021428D01*
X148858728Y-72021428D02*
X148787300Y-71950000D01*
X148787300Y-71950000D02*
X148715871Y-71807142D01*
X150215871Y-69764286D02*
X149215871Y-69764286D01*
X149358728Y-69764286D02*
X149287300Y-69692857D01*
X149287300Y-69692857D02*
X149215871Y-69550000D01*
X149215871Y-69550000D02*
X149215871Y-69335714D01*
X149215871Y-69335714D02*
X149287300Y-69192857D01*
X149287300Y-69192857D02*
X149430157Y-69121429D01*
X149430157Y-69121429D02*
X150215871Y-69121429D01*
X149430157Y-69121429D02*
X149287300Y-69050000D01*
X149287300Y-69050000D02*
X149215871Y-68907143D01*
X149215871Y-68907143D02*
X149215871Y-68692857D01*
X149215871Y-68692857D02*
X149287300Y-68550000D01*
X149287300Y-68550000D02*
X149430157Y-68478571D01*
X149430157Y-68478571D02*
X150215871Y-68478571D01*
X150215871Y-67764286D02*
X149215871Y-67764286D01*
X149358728Y-67764286D02*
X149287300Y-67692857D01*
X149287300Y-67692857D02*
X149215871Y-67550000D01*
X149215871Y-67550000D02*
X149215871Y-67335714D01*
X149215871Y-67335714D02*
X149287300Y-67192857D01*
X149287300Y-67192857D02*
X149430157Y-67121429D01*
X149430157Y-67121429D02*
X150215871Y-67121429D01*
X149430157Y-67121429D02*
X149287300Y-67050000D01*
X149287300Y-67050000D02*
X149215871Y-66907143D01*
X149215871Y-66907143D02*
X149215871Y-66692857D01*
X149215871Y-66692857D02*
X149287300Y-66550000D01*
X149287300Y-66550000D02*
X149430157Y-66478571D01*
X149430157Y-66478571D02*
X150215871Y-66478571D01*
D12*
X141500000Y-55000000D02*
X152051220Y-55000000D01*
X141500000Y-85000000D02*
X152051220Y-85000000D01*
X151464800Y-55000000D02*
X151464800Y-85000000D01*
X151464800Y-55000000D02*
X151464800Y-85000000D01*
X151464800Y-55000000D02*
X152051221Y-56126504D01*
X151464800Y-55000000D02*
X150878379Y-56126504D01*
X151464800Y-85000000D02*
X150878379Y-83873496D01*
X151464800Y-85000000D02*
X152051221Y-83873496D01*
D10*
D11*
X125085715Y-41804328D02*
X125157143Y-41732900D01*
X125157143Y-41732900D02*
X125300001Y-41661471D01*
X125300001Y-41661471D02*
X125657143Y-41661471D01*
X125657143Y-41661471D02*
X125800001Y-41732900D01*
X125800001Y-41732900D02*
X125871429Y-41804328D01*
X125871429Y-41804328D02*
X125942858Y-41947185D01*
X125942858Y-41947185D02*
X125942858Y-42090042D01*
X125942858Y-42090042D02*
X125871429Y-42304328D01*
X125871429Y-42304328D02*
X125014286Y-43161471D01*
X125014286Y-43161471D02*
X125942858Y-43161471D01*
X126514286Y-41804328D02*
X126585714Y-41732900D01*
X126585714Y-41732900D02*
X126728572Y-41661471D01*
X126728572Y-41661471D02*
X127085714Y-41661471D01*
X127085714Y-41661471D02*
X127228572Y-41732900D01*
X127228572Y-41732900D02*
X127300000Y-41804328D01*
X127300000Y-41804328D02*
X127371429Y-41947185D01*
X127371429Y-41947185D02*
X127371429Y-42090042D01*
X127371429Y-42090042D02*
X127300000Y-42304328D01*
X127300000Y-42304328D02*
X126442857Y-43161471D01*
X126442857Y-43161471D02*
X127371429Y-43161471D01*
X128014285Y-43018614D02*
X128085714Y-43090042D01*
X128085714Y-43090042D02*
X128014285Y-43161471D01*
X128014285Y-43161471D02*
X127942857Y-43090042D01*
X127942857Y-43090042D02*
X128014285Y-43018614D01*
X128014285Y-43018614D02*
X128014285Y-43161471D01*
X129442857Y-41661471D02*
X128728571Y-41661471D01*
X128728571Y-41661471D02*
X128657143Y-42375757D01*
X128657143Y-42375757D02*
X128728571Y-42304328D01*
X128728571Y-42304328D02*
X128871429Y-42232900D01*
X128871429Y-42232900D02*
X129228571Y-42232900D01*
X129228571Y-42232900D02*
X129371429Y-42304328D01*
X129371429Y-42304328D02*
X129442857Y-42375757D01*
X129442857Y-42375757D02*
X129514286Y-42518614D01*
X129514286Y-42518614D02*
X129514286Y-42875757D01*
X129514286Y-42875757D02*
X129442857Y-43018614D01*
X129442857Y-43018614D02*
X129371429Y-43090042D01*
X129371429Y-43090042D02*
X129228571Y-43161471D01*
X129228571Y-43161471D02*
X128871429Y-43161471D01*
X128871429Y-43161471D02*
X128728571Y-43090042D01*
X128728571Y-43090042D02*
X128657143Y-43018614D01*
X131057142Y-43161471D02*
X131057142Y-42161471D01*
X131057142Y-42304328D02*
X131128571Y-42232900D01*
X131128571Y-42232900D02*
X131271428Y-42161471D01*
X131271428Y-42161471D02*
X131485714Y-42161471D01*
X131485714Y-42161471D02*
X131628571Y-42232900D01*
X131628571Y-42232900D02*
X131700000Y-42375757D01*
X131700000Y-42375757D02*
X131700000Y-43161471D01*
X131700000Y-42375757D02*
X131771428Y-42232900D01*
X131771428Y-42232900D02*
X131914285Y-42161471D01*
X131914285Y-42161471D02*
X132128571Y-42161471D01*
X132128571Y-42161471D02*
X132271428Y-42232900D01*
X132271428Y-42232900D02*
X132342857Y-42375757D01*
X132342857Y-42375757D02*
X132342857Y-43161471D01*
X133057142Y-43161471D02*
X133057142Y-42161471D01*
X133057142Y-42304328D02*
X133128571Y-42232900D01*
X133128571Y-42232900D02*
X133271428Y-42161471D01*
X133271428Y-42161471D02*
X133485714Y-42161471D01*
X133485714Y-42161471D02*
X133628571Y-42232900D01*
X133628571Y-42232900D02*
X133700000Y-42375757D01*
X133700000Y-42375757D02*
X133700000Y-43161471D01*
X133700000Y-42375757D02*
X133771428Y-42232900D01*
X133771428Y-42232900D02*
X133914285Y-42161471D01*
X133914285Y-42161471D02*
X134128571Y-42161471D01*
X134128571Y-42161471D02*
X134271428Y-42232900D01*
X134271428Y-42232900D02*
X134342857Y-42375757D01*
X134342857Y-42375757D02*
X134342857Y-43161471D01*
D12*
X118500000Y-53500000D02*
X118500000Y-43823980D01*
X141000000Y-53500000D02*
X141000000Y-43823980D01*
X118500000Y-44410400D02*
X141000000Y-44410400D01*
X118500000Y-44410400D02*
X141000000Y-44410400D01*
X118500000Y-44410400D02*
X119626504Y-43823979D01*
X118500000Y-44410400D02*
X119626504Y-44996821D01*
X141000000Y-44410400D02*
X139873496Y-44996821D01*
X141000000Y-44410400D02*
X139873496Y-43823979D01*
D13*
%TO.P,U3,1,3V3*%
%TO.N,POWER*%
X129210000Y-65990000D03*
%TO.P,U3,2,DATA*%
%TO.N,DATA*%
X129210000Y-69990000D03*
%TO.P,U3,3,GND*%
%TO.N,GND*%
X129210000Y-73990000D03*
%TD*%
D14*
%TO.P,REF\u002A\u002A,1*%
%TO.N,POWER*%
X120607499Y-67474999D03*
D15*
%TO.P,REF\u002A\u002A,2*%
%TO.N,DATA*%
X120607499Y-70014999D03*
%TO.P,REF\u002A\u002A,3*%
%TO.N,GND*%
X120607499Y-72554999D03*
%TD*%
M02*
