%TF.GenerationSoftware,KiCad,Pcbnew,(7.0.0-0)*%
%TF.CreationDate,2023-05-15T11:59:51-04:00*%
%TF.ProjectId,4dapter,34646170-7465-4722-9e6b-696361645f70,rev?*%
%TF.SameCoordinates,Original*%
%TF.FileFunction,Drillmap*%
%TF.FilePolarity,Positive*%
%FSLAX45Y45*%
G04 Gerber Fmt 4.5, Leading zero omitted, Abs format (unit mm)*
G04 Created by KiCad (PCBNEW (7.0.0-0)) date 2023-05-15 11:59:51*
%MOMM*%
%LPD*%
G01*
G04 APERTURE LIST*
%ADD10C,0.050000*%
%ADD11C,0.200000*%
%ADD12C,0.250000*%
%ADD13C,0.410000*%
G04 APERTURE END LIST*
D10*
X15000000Y-5500000D02*
X15000000Y-13500000D01*
X10000000Y-5500000D02*
X10000000Y-13500000D01*
X15000000Y-5500000D02*
G75*
G03*
X14500000Y-5000000I-500000J0D01*
G01*
X14500000Y-14000000D02*
X10500000Y-14000000D01*
X10000000Y-13500000D02*
G75*
G03*
X10500000Y-14000000I500000J0D01*
G01*
X10500000Y-5000000D02*
X14500000Y-5000000D01*
X10500000Y-5000000D02*
G75*
G03*
X10000000Y-5500000I0J-500000D01*
G01*
X14500000Y-14000000D02*
G75*
G03*
X15000000Y-13500000I0J500000D01*
G01*
D11*
D12*
X10372820Y-5376640D02*
X10622820Y-5626640D01*
X10622820Y-5376640D02*
X10372820Y-5626640D01*
X10375000Y-13375000D02*
X10625000Y-13625000D01*
X10625000Y-13375000D02*
X10375000Y-13625000D01*
X12117223Y-9375000D02*
X12367223Y-9625000D01*
X12367223Y-9375000D02*
X12117223Y-9625000D01*
X14375000Y-5375000D02*
X14625000Y-5625000D01*
X14625000Y-5375000D02*
X14375000Y-5625000D01*
X14375000Y-13375000D02*
X14625000Y-13625000D01*
X14625000Y-13375000D02*
X14375000Y-13625000D01*
D13*
X10584320Y-10684560D02*
G75*
G03*
X10584320Y-10684560I-205000J0D01*
G01*
X10609320Y-12684560D02*
G75*
G03*
X10609320Y-12684560I-205000J0D01*
G01*
D11*
X10245119Y-14295976D02*
X10245119Y-14095976D01*
X10245119Y-14095976D02*
X10292738Y-14095976D01*
X10292738Y-14095976D02*
X10321310Y-14105500D01*
X10321310Y-14105500D02*
X10340357Y-14124548D01*
X10340357Y-14124548D02*
X10349881Y-14143595D01*
X10349881Y-14143595D02*
X10359405Y-14181690D01*
X10359405Y-14181690D02*
X10359405Y-14210262D01*
X10359405Y-14210262D02*
X10349881Y-14248357D01*
X10349881Y-14248357D02*
X10340357Y-14267405D01*
X10340357Y-14267405D02*
X10321310Y-14286452D01*
X10321310Y-14286452D02*
X10292738Y-14295976D01*
X10292738Y-14295976D02*
X10245119Y-14295976D01*
X10445119Y-14295976D02*
X10445119Y-14162643D01*
X10445119Y-14200738D02*
X10454643Y-14181690D01*
X10454643Y-14181690D02*
X10464167Y-14172167D01*
X10464167Y-14172167D02*
X10483214Y-14162643D01*
X10483214Y-14162643D02*
X10502262Y-14162643D01*
X10568929Y-14295976D02*
X10568929Y-14162643D01*
X10568929Y-14095976D02*
X10559405Y-14105500D01*
X10559405Y-14105500D02*
X10568929Y-14115024D01*
X10568929Y-14115024D02*
X10578452Y-14105500D01*
X10578452Y-14105500D02*
X10568929Y-14095976D01*
X10568929Y-14095976D02*
X10568929Y-14115024D01*
X10692738Y-14295976D02*
X10673690Y-14286452D01*
X10673690Y-14286452D02*
X10664167Y-14267405D01*
X10664167Y-14267405D02*
X10664167Y-14095976D01*
X10797500Y-14295976D02*
X10778452Y-14286452D01*
X10778452Y-14286452D02*
X10768929Y-14267405D01*
X10768929Y-14267405D02*
X10768929Y-14095976D01*
X10993690Y-14295976D02*
X10993690Y-14095976D01*
X10993690Y-14095976D02*
X11060357Y-14238833D01*
X11060357Y-14238833D02*
X11127024Y-14095976D01*
X11127024Y-14095976D02*
X11127024Y-14295976D01*
X11307976Y-14295976D02*
X11307976Y-14191214D01*
X11307976Y-14191214D02*
X11298452Y-14172167D01*
X11298452Y-14172167D02*
X11279405Y-14162643D01*
X11279405Y-14162643D02*
X11241309Y-14162643D01*
X11241309Y-14162643D02*
X11222262Y-14172167D01*
X11307976Y-14286452D02*
X11288928Y-14295976D01*
X11288928Y-14295976D02*
X11241309Y-14295976D01*
X11241309Y-14295976D02*
X11222262Y-14286452D01*
X11222262Y-14286452D02*
X11212738Y-14267405D01*
X11212738Y-14267405D02*
X11212738Y-14248357D01*
X11212738Y-14248357D02*
X11222262Y-14229309D01*
X11222262Y-14229309D02*
X11241309Y-14219786D01*
X11241309Y-14219786D02*
X11288928Y-14219786D01*
X11288928Y-14219786D02*
X11307976Y-14210262D01*
X11403214Y-14162643D02*
X11403214Y-14362643D01*
X11403214Y-14172167D02*
X11422262Y-14162643D01*
X11422262Y-14162643D02*
X11460357Y-14162643D01*
X11460357Y-14162643D02*
X11479405Y-14172167D01*
X11479405Y-14172167D02*
X11488928Y-14181690D01*
X11488928Y-14181690D02*
X11498452Y-14200738D01*
X11498452Y-14200738D02*
X11498452Y-14257881D01*
X11498452Y-14257881D02*
X11488928Y-14276928D01*
X11488928Y-14276928D02*
X11479405Y-14286452D01*
X11479405Y-14286452D02*
X11460357Y-14295976D01*
X11460357Y-14295976D02*
X11422262Y-14295976D01*
X11422262Y-14295976D02*
X11403214Y-14286452D01*
X11584167Y-14276928D02*
X11593690Y-14286452D01*
X11593690Y-14286452D02*
X11584167Y-14295976D01*
X11584167Y-14295976D02*
X11574643Y-14286452D01*
X11574643Y-14286452D02*
X11584167Y-14276928D01*
X11584167Y-14276928D02*
X11584167Y-14295976D01*
X11584167Y-14172167D02*
X11593690Y-14181690D01*
X11593690Y-14181690D02*
X11584167Y-14191214D01*
X11584167Y-14191214D02*
X11574643Y-14181690D01*
X11574643Y-14181690D02*
X11584167Y-14172167D01*
X11584167Y-14172167D02*
X11584167Y-14191214D01*
X9797500Y-14542500D02*
X9997500Y-14742500D01*
X9997500Y-14542500D02*
X9797500Y-14742500D01*
X10235595Y-14535024D02*
X10245119Y-14525500D01*
X10245119Y-14525500D02*
X10264167Y-14515976D01*
X10264167Y-14515976D02*
X10311786Y-14515976D01*
X10311786Y-14515976D02*
X10330833Y-14525500D01*
X10330833Y-14525500D02*
X10340357Y-14535024D01*
X10340357Y-14535024D02*
X10349881Y-14554071D01*
X10349881Y-14554071D02*
X10349881Y-14573119D01*
X10349881Y-14573119D02*
X10340357Y-14601690D01*
X10340357Y-14601690D02*
X10226071Y-14715976D01*
X10226071Y-14715976D02*
X10349881Y-14715976D01*
X10435595Y-14696928D02*
X10445119Y-14706452D01*
X10445119Y-14706452D02*
X10435595Y-14715976D01*
X10435595Y-14715976D02*
X10426071Y-14706452D01*
X10426071Y-14706452D02*
X10435595Y-14696928D01*
X10435595Y-14696928D02*
X10435595Y-14715976D01*
X10626071Y-14515976D02*
X10530833Y-14515976D01*
X10530833Y-14515976D02*
X10521310Y-14611214D01*
X10521310Y-14611214D02*
X10530833Y-14601690D01*
X10530833Y-14601690D02*
X10549881Y-14592167D01*
X10549881Y-14592167D02*
X10597500Y-14592167D01*
X10597500Y-14592167D02*
X10616548Y-14601690D01*
X10616548Y-14601690D02*
X10626071Y-14611214D01*
X10626071Y-14611214D02*
X10635595Y-14630262D01*
X10635595Y-14630262D02*
X10635595Y-14677881D01*
X10635595Y-14677881D02*
X10626071Y-14696928D01*
X10626071Y-14696928D02*
X10616548Y-14706452D01*
X10616548Y-14706452D02*
X10597500Y-14715976D01*
X10597500Y-14715976D02*
X10549881Y-14715976D01*
X10549881Y-14715976D02*
X10530833Y-14706452D01*
X10530833Y-14706452D02*
X10521310Y-14696928D01*
X10759405Y-14515976D02*
X10778452Y-14515976D01*
X10778452Y-14515976D02*
X10797500Y-14525500D01*
X10797500Y-14525500D02*
X10807024Y-14535024D01*
X10807024Y-14535024D02*
X10816548Y-14554071D01*
X10816548Y-14554071D02*
X10826071Y-14592167D01*
X10826071Y-14592167D02*
X10826071Y-14639786D01*
X10826071Y-14639786D02*
X10816548Y-14677881D01*
X10816548Y-14677881D02*
X10807024Y-14696928D01*
X10807024Y-14696928D02*
X10797500Y-14706452D01*
X10797500Y-14706452D02*
X10778452Y-14715976D01*
X10778452Y-14715976D02*
X10759405Y-14715976D01*
X10759405Y-14715976D02*
X10740357Y-14706452D01*
X10740357Y-14706452D02*
X10730833Y-14696928D01*
X10730833Y-14696928D02*
X10721310Y-14677881D01*
X10721310Y-14677881D02*
X10711786Y-14639786D01*
X10711786Y-14639786D02*
X10711786Y-14592167D01*
X10711786Y-14592167D02*
X10721310Y-14554071D01*
X10721310Y-14554071D02*
X10730833Y-14535024D01*
X10730833Y-14535024D02*
X10740357Y-14525500D01*
X10740357Y-14525500D02*
X10759405Y-14515976D01*
X10949881Y-14515976D02*
X10968929Y-14515976D01*
X10968929Y-14515976D02*
X10987976Y-14525500D01*
X10987976Y-14525500D02*
X10997500Y-14535024D01*
X10997500Y-14535024D02*
X11007024Y-14554071D01*
X11007024Y-14554071D02*
X11016548Y-14592167D01*
X11016548Y-14592167D02*
X11016548Y-14639786D01*
X11016548Y-14639786D02*
X11007024Y-14677881D01*
X11007024Y-14677881D02*
X10997500Y-14696928D01*
X10997500Y-14696928D02*
X10987976Y-14706452D01*
X10987976Y-14706452D02*
X10968929Y-14715976D01*
X10968929Y-14715976D02*
X10949881Y-14715976D01*
X10949881Y-14715976D02*
X10930833Y-14706452D01*
X10930833Y-14706452D02*
X10921310Y-14696928D01*
X10921310Y-14696928D02*
X10911786Y-14677881D01*
X10911786Y-14677881D02*
X10902262Y-14639786D01*
X10902262Y-14639786D02*
X10902262Y-14592167D01*
X10902262Y-14592167D02*
X10911786Y-14554071D01*
X10911786Y-14554071D02*
X10921310Y-14535024D01*
X10921310Y-14535024D02*
X10930833Y-14525500D01*
X10930833Y-14525500D02*
X10949881Y-14515976D01*
X11102262Y-14715976D02*
X11102262Y-14582643D01*
X11102262Y-14601690D02*
X11111786Y-14592167D01*
X11111786Y-14592167D02*
X11130833Y-14582643D01*
X11130833Y-14582643D02*
X11159405Y-14582643D01*
X11159405Y-14582643D02*
X11178452Y-14592167D01*
X11178452Y-14592167D02*
X11187976Y-14611214D01*
X11187976Y-14611214D02*
X11187976Y-14715976D01*
X11187976Y-14611214D02*
X11197500Y-14592167D01*
X11197500Y-14592167D02*
X11216548Y-14582643D01*
X11216548Y-14582643D02*
X11245119Y-14582643D01*
X11245119Y-14582643D02*
X11264167Y-14592167D01*
X11264167Y-14592167D02*
X11273690Y-14611214D01*
X11273690Y-14611214D02*
X11273690Y-14715976D01*
X11368929Y-14715976D02*
X11368929Y-14582643D01*
X11368929Y-14601690D02*
X11378452Y-14592167D01*
X11378452Y-14592167D02*
X11397500Y-14582643D01*
X11397500Y-14582643D02*
X11426071Y-14582643D01*
X11426071Y-14582643D02*
X11445119Y-14592167D01*
X11445119Y-14592167D02*
X11454643Y-14611214D01*
X11454643Y-14611214D02*
X11454643Y-14715976D01*
X11454643Y-14611214D02*
X11464167Y-14592167D01*
X11464167Y-14592167D02*
X11483214Y-14582643D01*
X11483214Y-14582643D02*
X11511786Y-14582643D01*
X11511786Y-14582643D02*
X11530833Y-14592167D01*
X11530833Y-14592167D02*
X11540357Y-14611214D01*
X11540357Y-14611214D02*
X11540357Y-14715976D01*
X11898452Y-14506452D02*
X11727024Y-14763595D01*
X12123214Y-14515976D02*
X12142262Y-14515976D01*
X12142262Y-14515976D02*
X12161310Y-14525500D01*
X12161310Y-14525500D02*
X12170833Y-14535024D01*
X12170833Y-14535024D02*
X12180357Y-14554071D01*
X12180357Y-14554071D02*
X12189881Y-14592167D01*
X12189881Y-14592167D02*
X12189881Y-14639786D01*
X12189881Y-14639786D02*
X12180357Y-14677881D01*
X12180357Y-14677881D02*
X12170833Y-14696928D01*
X12170833Y-14696928D02*
X12161310Y-14706452D01*
X12161310Y-14706452D02*
X12142262Y-14715976D01*
X12142262Y-14715976D02*
X12123214Y-14715976D01*
X12123214Y-14715976D02*
X12104167Y-14706452D01*
X12104167Y-14706452D02*
X12094643Y-14696928D01*
X12094643Y-14696928D02*
X12085119Y-14677881D01*
X12085119Y-14677881D02*
X12075595Y-14639786D01*
X12075595Y-14639786D02*
X12075595Y-14592167D01*
X12075595Y-14592167D02*
X12085119Y-14554071D01*
X12085119Y-14554071D02*
X12094643Y-14535024D01*
X12094643Y-14535024D02*
X12104167Y-14525500D01*
X12104167Y-14525500D02*
X12123214Y-14515976D01*
X12275595Y-14696928D02*
X12285119Y-14706452D01*
X12285119Y-14706452D02*
X12275595Y-14715976D01*
X12275595Y-14715976D02*
X12266071Y-14706452D01*
X12266071Y-14706452D02*
X12275595Y-14696928D01*
X12275595Y-14696928D02*
X12275595Y-14715976D01*
X12408929Y-14515976D02*
X12427976Y-14515976D01*
X12427976Y-14515976D02*
X12447024Y-14525500D01*
X12447024Y-14525500D02*
X12456548Y-14535024D01*
X12456548Y-14535024D02*
X12466071Y-14554071D01*
X12466071Y-14554071D02*
X12475595Y-14592167D01*
X12475595Y-14592167D02*
X12475595Y-14639786D01*
X12475595Y-14639786D02*
X12466071Y-14677881D01*
X12466071Y-14677881D02*
X12456548Y-14696928D01*
X12456548Y-14696928D02*
X12447024Y-14706452D01*
X12447024Y-14706452D02*
X12427976Y-14715976D01*
X12427976Y-14715976D02*
X12408929Y-14715976D01*
X12408929Y-14715976D02*
X12389881Y-14706452D01*
X12389881Y-14706452D02*
X12380357Y-14696928D01*
X12380357Y-14696928D02*
X12370833Y-14677881D01*
X12370833Y-14677881D02*
X12361310Y-14639786D01*
X12361310Y-14639786D02*
X12361310Y-14592167D01*
X12361310Y-14592167D02*
X12370833Y-14554071D01*
X12370833Y-14554071D02*
X12380357Y-14535024D01*
X12380357Y-14535024D02*
X12389881Y-14525500D01*
X12389881Y-14525500D02*
X12408929Y-14515976D01*
X12570833Y-14715976D02*
X12608929Y-14715976D01*
X12608929Y-14715976D02*
X12627976Y-14706452D01*
X12627976Y-14706452D02*
X12637500Y-14696928D01*
X12637500Y-14696928D02*
X12656548Y-14668357D01*
X12656548Y-14668357D02*
X12666071Y-14630262D01*
X12666071Y-14630262D02*
X12666071Y-14554071D01*
X12666071Y-14554071D02*
X12656548Y-14535024D01*
X12656548Y-14535024D02*
X12647024Y-14525500D01*
X12647024Y-14525500D02*
X12627976Y-14515976D01*
X12627976Y-14515976D02*
X12589881Y-14515976D01*
X12589881Y-14515976D02*
X12570833Y-14525500D01*
X12570833Y-14525500D02*
X12561310Y-14535024D01*
X12561310Y-14535024D02*
X12551786Y-14554071D01*
X12551786Y-14554071D02*
X12551786Y-14601690D01*
X12551786Y-14601690D02*
X12561310Y-14620738D01*
X12561310Y-14620738D02*
X12570833Y-14630262D01*
X12570833Y-14630262D02*
X12589881Y-14639786D01*
X12589881Y-14639786D02*
X12627976Y-14639786D01*
X12627976Y-14639786D02*
X12647024Y-14630262D01*
X12647024Y-14630262D02*
X12656548Y-14620738D01*
X12656548Y-14620738D02*
X12666071Y-14601690D01*
X12780357Y-14601690D02*
X12761310Y-14592167D01*
X12761310Y-14592167D02*
X12751786Y-14582643D01*
X12751786Y-14582643D02*
X12742262Y-14563595D01*
X12742262Y-14563595D02*
X12742262Y-14554071D01*
X12742262Y-14554071D02*
X12751786Y-14535024D01*
X12751786Y-14535024D02*
X12761310Y-14525500D01*
X12761310Y-14525500D02*
X12780357Y-14515976D01*
X12780357Y-14515976D02*
X12818452Y-14515976D01*
X12818452Y-14515976D02*
X12837500Y-14525500D01*
X12837500Y-14525500D02*
X12847024Y-14535024D01*
X12847024Y-14535024D02*
X12856548Y-14554071D01*
X12856548Y-14554071D02*
X12856548Y-14563595D01*
X12856548Y-14563595D02*
X12847024Y-14582643D01*
X12847024Y-14582643D02*
X12837500Y-14592167D01*
X12837500Y-14592167D02*
X12818452Y-14601690D01*
X12818452Y-14601690D02*
X12780357Y-14601690D01*
X12780357Y-14601690D02*
X12761310Y-14611214D01*
X12761310Y-14611214D02*
X12751786Y-14620738D01*
X12751786Y-14620738D02*
X12742262Y-14639786D01*
X12742262Y-14639786D02*
X12742262Y-14677881D01*
X12742262Y-14677881D02*
X12751786Y-14696928D01*
X12751786Y-14696928D02*
X12761310Y-14706452D01*
X12761310Y-14706452D02*
X12780357Y-14715976D01*
X12780357Y-14715976D02*
X12818452Y-14715976D01*
X12818452Y-14715976D02*
X12837500Y-14706452D01*
X12837500Y-14706452D02*
X12847024Y-14696928D01*
X12847024Y-14696928D02*
X12856548Y-14677881D01*
X12856548Y-14677881D02*
X12856548Y-14639786D01*
X12856548Y-14639786D02*
X12847024Y-14620738D01*
X12847024Y-14620738D02*
X12837500Y-14611214D01*
X12837500Y-14611214D02*
X12818452Y-14601690D01*
X13027976Y-14582643D02*
X13027976Y-14715976D01*
X12980357Y-14506452D02*
X12932738Y-14649309D01*
X12932738Y-14649309D02*
X13056548Y-14649309D01*
X13123214Y-14515976D02*
X13123214Y-14554071D01*
X13199405Y-14515976D02*
X13199405Y-14554071D01*
X13462262Y-14792167D02*
X13452738Y-14782643D01*
X13452738Y-14782643D02*
X13433691Y-14754071D01*
X13433691Y-14754071D02*
X13424167Y-14735024D01*
X13424167Y-14735024D02*
X13414643Y-14706452D01*
X13414643Y-14706452D02*
X13405119Y-14658833D01*
X13405119Y-14658833D02*
X13405119Y-14620738D01*
X13405119Y-14620738D02*
X13414643Y-14573119D01*
X13414643Y-14573119D02*
X13424167Y-14544548D01*
X13424167Y-14544548D02*
X13433691Y-14525500D01*
X13433691Y-14525500D02*
X13452738Y-14496928D01*
X13452738Y-14496928D02*
X13462262Y-14487405D01*
X13633691Y-14515976D02*
X13538452Y-14515976D01*
X13538452Y-14515976D02*
X13528929Y-14611214D01*
X13528929Y-14611214D02*
X13538452Y-14601690D01*
X13538452Y-14601690D02*
X13557500Y-14592167D01*
X13557500Y-14592167D02*
X13605119Y-14592167D01*
X13605119Y-14592167D02*
X13624167Y-14601690D01*
X13624167Y-14601690D02*
X13633691Y-14611214D01*
X13633691Y-14611214D02*
X13643214Y-14630262D01*
X13643214Y-14630262D02*
X13643214Y-14677881D01*
X13643214Y-14677881D02*
X13633691Y-14696928D01*
X13633691Y-14696928D02*
X13624167Y-14706452D01*
X13624167Y-14706452D02*
X13605119Y-14715976D01*
X13605119Y-14715976D02*
X13557500Y-14715976D01*
X13557500Y-14715976D02*
X13538452Y-14706452D01*
X13538452Y-14706452D02*
X13528929Y-14696928D01*
X13848929Y-14715976D02*
X13848929Y-14515976D01*
X13934643Y-14715976D02*
X13934643Y-14611214D01*
X13934643Y-14611214D02*
X13925119Y-14592167D01*
X13925119Y-14592167D02*
X13906072Y-14582643D01*
X13906072Y-14582643D02*
X13877500Y-14582643D01*
X13877500Y-14582643D02*
X13858452Y-14592167D01*
X13858452Y-14592167D02*
X13848929Y-14601690D01*
X14058452Y-14715976D02*
X14039405Y-14706452D01*
X14039405Y-14706452D02*
X14029881Y-14696928D01*
X14029881Y-14696928D02*
X14020357Y-14677881D01*
X14020357Y-14677881D02*
X14020357Y-14620738D01*
X14020357Y-14620738D02*
X14029881Y-14601690D01*
X14029881Y-14601690D02*
X14039405Y-14592167D01*
X14039405Y-14592167D02*
X14058452Y-14582643D01*
X14058452Y-14582643D02*
X14087024Y-14582643D01*
X14087024Y-14582643D02*
X14106072Y-14592167D01*
X14106072Y-14592167D02*
X14115595Y-14601690D01*
X14115595Y-14601690D02*
X14125119Y-14620738D01*
X14125119Y-14620738D02*
X14125119Y-14677881D01*
X14125119Y-14677881D02*
X14115595Y-14696928D01*
X14115595Y-14696928D02*
X14106072Y-14706452D01*
X14106072Y-14706452D02*
X14087024Y-14715976D01*
X14087024Y-14715976D02*
X14058452Y-14715976D01*
X14239405Y-14715976D02*
X14220357Y-14706452D01*
X14220357Y-14706452D02*
X14210833Y-14687405D01*
X14210833Y-14687405D02*
X14210833Y-14515976D01*
X14391786Y-14706452D02*
X14372738Y-14715976D01*
X14372738Y-14715976D02*
X14334643Y-14715976D01*
X14334643Y-14715976D02*
X14315595Y-14706452D01*
X14315595Y-14706452D02*
X14306072Y-14687405D01*
X14306072Y-14687405D02*
X14306072Y-14611214D01*
X14306072Y-14611214D02*
X14315595Y-14592167D01*
X14315595Y-14592167D02*
X14334643Y-14582643D01*
X14334643Y-14582643D02*
X14372738Y-14582643D01*
X14372738Y-14582643D02*
X14391786Y-14592167D01*
X14391786Y-14592167D02*
X14401310Y-14611214D01*
X14401310Y-14611214D02*
X14401310Y-14630262D01*
X14401310Y-14630262D02*
X14306072Y-14649309D01*
X14477500Y-14706452D02*
X14496548Y-14715976D01*
X14496548Y-14715976D02*
X14534643Y-14715976D01*
X14534643Y-14715976D02*
X14553691Y-14706452D01*
X14553691Y-14706452D02*
X14563214Y-14687405D01*
X14563214Y-14687405D02*
X14563214Y-14677881D01*
X14563214Y-14677881D02*
X14553691Y-14658833D01*
X14553691Y-14658833D02*
X14534643Y-14649309D01*
X14534643Y-14649309D02*
X14506072Y-14649309D01*
X14506072Y-14649309D02*
X14487024Y-14639786D01*
X14487024Y-14639786D02*
X14477500Y-14620738D01*
X14477500Y-14620738D02*
X14477500Y-14611214D01*
X14477500Y-14611214D02*
X14487024Y-14592167D01*
X14487024Y-14592167D02*
X14506072Y-14582643D01*
X14506072Y-14582643D02*
X14534643Y-14582643D01*
X14534643Y-14582643D02*
X14553691Y-14592167D01*
X14629881Y-14792167D02*
X14639405Y-14782643D01*
X14639405Y-14782643D02*
X14658453Y-14754071D01*
X14658453Y-14754071D02*
X14667976Y-14735024D01*
X14667976Y-14735024D02*
X14677500Y-14706452D01*
X14677500Y-14706452D02*
X14687024Y-14658833D01*
X14687024Y-14658833D02*
X14687024Y-14620738D01*
X14687024Y-14620738D02*
X14677500Y-14573119D01*
X14677500Y-14573119D02*
X14667976Y-14544548D01*
X14667976Y-14544548D02*
X14658453Y-14525500D01*
X14658453Y-14525500D02*
X14639405Y-14496928D01*
X14639405Y-14496928D02*
X14629881Y-14487405D01*
X14959405Y-14792167D02*
X14949881Y-14782643D01*
X14949881Y-14782643D02*
X14930833Y-14754071D01*
X14930833Y-14754071D02*
X14921310Y-14735024D01*
X14921310Y-14735024D02*
X14911786Y-14706452D01*
X14911786Y-14706452D02*
X14902262Y-14658833D01*
X14902262Y-14658833D02*
X14902262Y-14620738D01*
X14902262Y-14620738D02*
X14911786Y-14573119D01*
X14911786Y-14573119D02*
X14921310Y-14544548D01*
X14921310Y-14544548D02*
X14930833Y-14525500D01*
X14930833Y-14525500D02*
X14949881Y-14496928D01*
X14949881Y-14496928D02*
X14959405Y-14487405D01*
X15035595Y-14582643D02*
X15035595Y-14715976D01*
X15035595Y-14601690D02*
X15045119Y-14592167D01*
X15045119Y-14592167D02*
X15064167Y-14582643D01*
X15064167Y-14582643D02*
X15092738Y-14582643D01*
X15092738Y-14582643D02*
X15111786Y-14592167D01*
X15111786Y-14592167D02*
X15121310Y-14611214D01*
X15121310Y-14611214D02*
X15121310Y-14715976D01*
X15245119Y-14715976D02*
X15226072Y-14706452D01*
X15226072Y-14706452D02*
X15216548Y-14696928D01*
X15216548Y-14696928D02*
X15207024Y-14677881D01*
X15207024Y-14677881D02*
X15207024Y-14620738D01*
X15207024Y-14620738D02*
X15216548Y-14601690D01*
X15216548Y-14601690D02*
X15226072Y-14592167D01*
X15226072Y-14592167D02*
X15245119Y-14582643D01*
X15245119Y-14582643D02*
X15273691Y-14582643D01*
X15273691Y-14582643D02*
X15292738Y-14592167D01*
X15292738Y-14592167D02*
X15302262Y-14601690D01*
X15302262Y-14601690D02*
X15311786Y-14620738D01*
X15311786Y-14620738D02*
X15311786Y-14677881D01*
X15311786Y-14677881D02*
X15302262Y-14696928D01*
X15302262Y-14696928D02*
X15292738Y-14706452D01*
X15292738Y-14706452D02*
X15273691Y-14715976D01*
X15273691Y-14715976D02*
X15245119Y-14715976D01*
X15368929Y-14582643D02*
X15445119Y-14582643D01*
X15397500Y-14515976D02*
X15397500Y-14687405D01*
X15397500Y-14687405D02*
X15407024Y-14706452D01*
X15407024Y-14706452D02*
X15426072Y-14715976D01*
X15426072Y-14715976D02*
X15445119Y-14715976D01*
X15631786Y-14582643D02*
X15631786Y-14782643D01*
X15631786Y-14592167D02*
X15650833Y-14582643D01*
X15650833Y-14582643D02*
X15688929Y-14582643D01*
X15688929Y-14582643D02*
X15707976Y-14592167D01*
X15707976Y-14592167D02*
X15717500Y-14601690D01*
X15717500Y-14601690D02*
X15727024Y-14620738D01*
X15727024Y-14620738D02*
X15727024Y-14677881D01*
X15727024Y-14677881D02*
X15717500Y-14696928D01*
X15717500Y-14696928D02*
X15707976Y-14706452D01*
X15707976Y-14706452D02*
X15688929Y-14715976D01*
X15688929Y-14715976D02*
X15650833Y-14715976D01*
X15650833Y-14715976D02*
X15631786Y-14706452D01*
X15841310Y-14715976D02*
X15822262Y-14706452D01*
X15822262Y-14706452D02*
X15812738Y-14687405D01*
X15812738Y-14687405D02*
X15812738Y-14515976D01*
X16003214Y-14715976D02*
X16003214Y-14611214D01*
X16003214Y-14611214D02*
X15993691Y-14592167D01*
X15993691Y-14592167D02*
X15974643Y-14582643D01*
X15974643Y-14582643D02*
X15936548Y-14582643D01*
X15936548Y-14582643D02*
X15917500Y-14592167D01*
X16003214Y-14706452D02*
X15984167Y-14715976D01*
X15984167Y-14715976D02*
X15936548Y-14715976D01*
X15936548Y-14715976D02*
X15917500Y-14706452D01*
X15917500Y-14706452D02*
X15907976Y-14687405D01*
X15907976Y-14687405D02*
X15907976Y-14668357D01*
X15907976Y-14668357D02*
X15917500Y-14649309D01*
X15917500Y-14649309D02*
X15936548Y-14639786D01*
X15936548Y-14639786D02*
X15984167Y-14639786D01*
X15984167Y-14639786D02*
X16003214Y-14630262D01*
X16069881Y-14582643D02*
X16146072Y-14582643D01*
X16098453Y-14515976D02*
X16098453Y-14687405D01*
X16098453Y-14687405D02*
X16107976Y-14706452D01*
X16107976Y-14706452D02*
X16127024Y-14715976D01*
X16127024Y-14715976D02*
X16146072Y-14715976D01*
X16288929Y-14706452D02*
X16269881Y-14715976D01*
X16269881Y-14715976D02*
X16231786Y-14715976D01*
X16231786Y-14715976D02*
X16212738Y-14706452D01*
X16212738Y-14706452D02*
X16203214Y-14687405D01*
X16203214Y-14687405D02*
X16203214Y-14611214D01*
X16203214Y-14611214D02*
X16212738Y-14592167D01*
X16212738Y-14592167D02*
X16231786Y-14582643D01*
X16231786Y-14582643D02*
X16269881Y-14582643D01*
X16269881Y-14582643D02*
X16288929Y-14592167D01*
X16288929Y-14592167D02*
X16298453Y-14611214D01*
X16298453Y-14611214D02*
X16298453Y-14630262D01*
X16298453Y-14630262D02*
X16203214Y-14649309D01*
X16469881Y-14715976D02*
X16469881Y-14515976D01*
X16469881Y-14706452D02*
X16450834Y-14715976D01*
X16450834Y-14715976D02*
X16412738Y-14715976D01*
X16412738Y-14715976D02*
X16393691Y-14706452D01*
X16393691Y-14706452D02*
X16384167Y-14696928D01*
X16384167Y-14696928D02*
X16374643Y-14677881D01*
X16374643Y-14677881D02*
X16374643Y-14620738D01*
X16374643Y-14620738D02*
X16384167Y-14601690D01*
X16384167Y-14601690D02*
X16393691Y-14592167D01*
X16393691Y-14592167D02*
X16412738Y-14582643D01*
X16412738Y-14582643D02*
X16450834Y-14582643D01*
X16450834Y-14582643D02*
X16469881Y-14592167D01*
X16546072Y-14792167D02*
X16555595Y-14782643D01*
X16555595Y-14782643D02*
X16574643Y-14754071D01*
X16574643Y-14754071D02*
X16584167Y-14735024D01*
X16584167Y-14735024D02*
X16593691Y-14706452D01*
X16593691Y-14706452D02*
X16603214Y-14658833D01*
X16603214Y-14658833D02*
X16603214Y-14620738D01*
X16603214Y-14620738D02*
X16593691Y-14573119D01*
X16593691Y-14573119D02*
X16584167Y-14544548D01*
X16584167Y-14544548D02*
X16574643Y-14525500D01*
X16574643Y-14525500D02*
X16555595Y-14496928D01*
X16555595Y-14496928D02*
X16546072Y-14487405D01*
X9997500Y-14962500D02*
G75*
G03*
X9997500Y-14962500I-100000J0D01*
G01*
X10330833Y-14902643D02*
X10330833Y-15035976D01*
X10283214Y-14826452D02*
X10235595Y-14969309D01*
X10235595Y-14969309D02*
X10359405Y-14969309D01*
X10435595Y-15016928D02*
X10445119Y-15026452D01*
X10445119Y-15026452D02*
X10435595Y-15035976D01*
X10435595Y-15035976D02*
X10426071Y-15026452D01*
X10426071Y-15026452D02*
X10435595Y-15016928D01*
X10435595Y-15016928D02*
X10435595Y-15035976D01*
X10635595Y-15035976D02*
X10521310Y-15035976D01*
X10578452Y-15035976D02*
X10578452Y-14835976D01*
X10578452Y-14835976D02*
X10559405Y-14864548D01*
X10559405Y-14864548D02*
X10540357Y-14883595D01*
X10540357Y-14883595D02*
X10521310Y-14893119D01*
X10759405Y-14835976D02*
X10778452Y-14835976D01*
X10778452Y-14835976D02*
X10797500Y-14845500D01*
X10797500Y-14845500D02*
X10807024Y-14855024D01*
X10807024Y-14855024D02*
X10816548Y-14874071D01*
X10816548Y-14874071D02*
X10826071Y-14912167D01*
X10826071Y-14912167D02*
X10826071Y-14959786D01*
X10826071Y-14959786D02*
X10816548Y-14997881D01*
X10816548Y-14997881D02*
X10807024Y-15016928D01*
X10807024Y-15016928D02*
X10797500Y-15026452D01*
X10797500Y-15026452D02*
X10778452Y-15035976D01*
X10778452Y-15035976D02*
X10759405Y-15035976D01*
X10759405Y-15035976D02*
X10740357Y-15026452D01*
X10740357Y-15026452D02*
X10730833Y-15016928D01*
X10730833Y-15016928D02*
X10721310Y-14997881D01*
X10721310Y-14997881D02*
X10711786Y-14959786D01*
X10711786Y-14959786D02*
X10711786Y-14912167D01*
X10711786Y-14912167D02*
X10721310Y-14874071D01*
X10721310Y-14874071D02*
X10730833Y-14855024D01*
X10730833Y-14855024D02*
X10740357Y-14845500D01*
X10740357Y-14845500D02*
X10759405Y-14835976D01*
X10949881Y-14835976D02*
X10968929Y-14835976D01*
X10968929Y-14835976D02*
X10987976Y-14845500D01*
X10987976Y-14845500D02*
X10997500Y-14855024D01*
X10997500Y-14855024D02*
X11007024Y-14874071D01*
X11007024Y-14874071D02*
X11016548Y-14912167D01*
X11016548Y-14912167D02*
X11016548Y-14959786D01*
X11016548Y-14959786D02*
X11007024Y-14997881D01*
X11007024Y-14997881D02*
X10997500Y-15016928D01*
X10997500Y-15016928D02*
X10987976Y-15026452D01*
X10987976Y-15026452D02*
X10968929Y-15035976D01*
X10968929Y-15035976D02*
X10949881Y-15035976D01*
X10949881Y-15035976D02*
X10930833Y-15026452D01*
X10930833Y-15026452D02*
X10921310Y-15016928D01*
X10921310Y-15016928D02*
X10911786Y-14997881D01*
X10911786Y-14997881D02*
X10902262Y-14959786D01*
X10902262Y-14959786D02*
X10902262Y-14912167D01*
X10902262Y-14912167D02*
X10911786Y-14874071D01*
X10911786Y-14874071D02*
X10921310Y-14855024D01*
X10921310Y-14855024D02*
X10930833Y-14845500D01*
X10930833Y-14845500D02*
X10949881Y-14835976D01*
X11102262Y-15035976D02*
X11102262Y-14902643D01*
X11102262Y-14921690D02*
X11111786Y-14912167D01*
X11111786Y-14912167D02*
X11130833Y-14902643D01*
X11130833Y-14902643D02*
X11159405Y-14902643D01*
X11159405Y-14902643D02*
X11178452Y-14912167D01*
X11178452Y-14912167D02*
X11187976Y-14931214D01*
X11187976Y-14931214D02*
X11187976Y-15035976D01*
X11187976Y-14931214D02*
X11197500Y-14912167D01*
X11197500Y-14912167D02*
X11216548Y-14902643D01*
X11216548Y-14902643D02*
X11245119Y-14902643D01*
X11245119Y-14902643D02*
X11264167Y-14912167D01*
X11264167Y-14912167D02*
X11273690Y-14931214D01*
X11273690Y-14931214D02*
X11273690Y-15035976D01*
X11368929Y-15035976D02*
X11368929Y-14902643D01*
X11368929Y-14921690D02*
X11378452Y-14912167D01*
X11378452Y-14912167D02*
X11397500Y-14902643D01*
X11397500Y-14902643D02*
X11426071Y-14902643D01*
X11426071Y-14902643D02*
X11445119Y-14912167D01*
X11445119Y-14912167D02*
X11454643Y-14931214D01*
X11454643Y-14931214D02*
X11454643Y-15035976D01*
X11454643Y-14931214D02*
X11464167Y-14912167D01*
X11464167Y-14912167D02*
X11483214Y-14902643D01*
X11483214Y-14902643D02*
X11511786Y-14902643D01*
X11511786Y-14902643D02*
X11530833Y-14912167D01*
X11530833Y-14912167D02*
X11540357Y-14931214D01*
X11540357Y-14931214D02*
X11540357Y-15035976D01*
X11898452Y-14826452D02*
X11727024Y-15083595D01*
X12123214Y-14835976D02*
X12142262Y-14835976D01*
X12142262Y-14835976D02*
X12161310Y-14845500D01*
X12161310Y-14845500D02*
X12170833Y-14855024D01*
X12170833Y-14855024D02*
X12180357Y-14874071D01*
X12180357Y-14874071D02*
X12189881Y-14912167D01*
X12189881Y-14912167D02*
X12189881Y-14959786D01*
X12189881Y-14959786D02*
X12180357Y-14997881D01*
X12180357Y-14997881D02*
X12170833Y-15016928D01*
X12170833Y-15016928D02*
X12161310Y-15026452D01*
X12161310Y-15026452D02*
X12142262Y-15035976D01*
X12142262Y-15035976D02*
X12123214Y-15035976D01*
X12123214Y-15035976D02*
X12104167Y-15026452D01*
X12104167Y-15026452D02*
X12094643Y-15016928D01*
X12094643Y-15016928D02*
X12085119Y-14997881D01*
X12085119Y-14997881D02*
X12075595Y-14959786D01*
X12075595Y-14959786D02*
X12075595Y-14912167D01*
X12075595Y-14912167D02*
X12085119Y-14874071D01*
X12085119Y-14874071D02*
X12094643Y-14855024D01*
X12094643Y-14855024D02*
X12104167Y-14845500D01*
X12104167Y-14845500D02*
X12123214Y-14835976D01*
X12275595Y-15016928D02*
X12285119Y-15026452D01*
X12285119Y-15026452D02*
X12275595Y-15035976D01*
X12275595Y-15035976D02*
X12266071Y-15026452D01*
X12266071Y-15026452D02*
X12275595Y-15016928D01*
X12275595Y-15016928D02*
X12275595Y-15035976D01*
X12475595Y-15035976D02*
X12361310Y-15035976D01*
X12418452Y-15035976D02*
X12418452Y-14835976D01*
X12418452Y-14835976D02*
X12399405Y-14864548D01*
X12399405Y-14864548D02*
X12380357Y-14883595D01*
X12380357Y-14883595D02*
X12361310Y-14893119D01*
X12647024Y-14835976D02*
X12608929Y-14835976D01*
X12608929Y-14835976D02*
X12589881Y-14845500D01*
X12589881Y-14845500D02*
X12580357Y-14855024D01*
X12580357Y-14855024D02*
X12561310Y-14883595D01*
X12561310Y-14883595D02*
X12551786Y-14921690D01*
X12551786Y-14921690D02*
X12551786Y-14997881D01*
X12551786Y-14997881D02*
X12561310Y-15016928D01*
X12561310Y-15016928D02*
X12570833Y-15026452D01*
X12570833Y-15026452D02*
X12589881Y-15035976D01*
X12589881Y-15035976D02*
X12627976Y-15035976D01*
X12627976Y-15035976D02*
X12647024Y-15026452D01*
X12647024Y-15026452D02*
X12656548Y-15016928D01*
X12656548Y-15016928D02*
X12666071Y-14997881D01*
X12666071Y-14997881D02*
X12666071Y-14950262D01*
X12666071Y-14950262D02*
X12656548Y-14931214D01*
X12656548Y-14931214D02*
X12647024Y-14921690D01*
X12647024Y-14921690D02*
X12627976Y-14912167D01*
X12627976Y-14912167D02*
X12589881Y-14912167D01*
X12589881Y-14912167D02*
X12570833Y-14921690D01*
X12570833Y-14921690D02*
X12561310Y-14931214D01*
X12561310Y-14931214D02*
X12551786Y-14950262D01*
X12856548Y-15035976D02*
X12742262Y-15035976D01*
X12799405Y-15035976D02*
X12799405Y-14835976D01*
X12799405Y-14835976D02*
X12780357Y-14864548D01*
X12780357Y-14864548D02*
X12761310Y-14883595D01*
X12761310Y-14883595D02*
X12742262Y-14893119D01*
X13027976Y-14902643D02*
X13027976Y-15035976D01*
X12980357Y-14826452D02*
X12932738Y-14969309D01*
X12932738Y-14969309D02*
X13056548Y-14969309D01*
X13123214Y-14835976D02*
X13123214Y-14874071D01*
X13199405Y-14835976D02*
X13199405Y-14874071D01*
X13462262Y-15112167D02*
X13452738Y-15102643D01*
X13452738Y-15102643D02*
X13433691Y-15074071D01*
X13433691Y-15074071D02*
X13424167Y-15055024D01*
X13424167Y-15055024D02*
X13414643Y-15026452D01*
X13414643Y-15026452D02*
X13405119Y-14978833D01*
X13405119Y-14978833D02*
X13405119Y-14940738D01*
X13405119Y-14940738D02*
X13414643Y-14893119D01*
X13414643Y-14893119D02*
X13424167Y-14864548D01*
X13424167Y-14864548D02*
X13433691Y-14845500D01*
X13433691Y-14845500D02*
X13452738Y-14816928D01*
X13452738Y-14816928D02*
X13462262Y-14807405D01*
X13528929Y-14855024D02*
X13538452Y-14845500D01*
X13538452Y-14845500D02*
X13557500Y-14835976D01*
X13557500Y-14835976D02*
X13605119Y-14835976D01*
X13605119Y-14835976D02*
X13624167Y-14845500D01*
X13624167Y-14845500D02*
X13633691Y-14855024D01*
X13633691Y-14855024D02*
X13643214Y-14874071D01*
X13643214Y-14874071D02*
X13643214Y-14893119D01*
X13643214Y-14893119D02*
X13633691Y-14921690D01*
X13633691Y-14921690D02*
X13519405Y-15035976D01*
X13519405Y-15035976D02*
X13643214Y-15035976D01*
X13848929Y-15035976D02*
X13848929Y-14835976D01*
X13934643Y-15035976D02*
X13934643Y-14931214D01*
X13934643Y-14931214D02*
X13925119Y-14912167D01*
X13925119Y-14912167D02*
X13906072Y-14902643D01*
X13906072Y-14902643D02*
X13877500Y-14902643D01*
X13877500Y-14902643D02*
X13858452Y-14912167D01*
X13858452Y-14912167D02*
X13848929Y-14921690D01*
X14058452Y-15035976D02*
X14039405Y-15026452D01*
X14039405Y-15026452D02*
X14029881Y-15016928D01*
X14029881Y-15016928D02*
X14020357Y-14997881D01*
X14020357Y-14997881D02*
X14020357Y-14940738D01*
X14020357Y-14940738D02*
X14029881Y-14921690D01*
X14029881Y-14921690D02*
X14039405Y-14912167D01*
X14039405Y-14912167D02*
X14058452Y-14902643D01*
X14058452Y-14902643D02*
X14087024Y-14902643D01*
X14087024Y-14902643D02*
X14106072Y-14912167D01*
X14106072Y-14912167D02*
X14115595Y-14921690D01*
X14115595Y-14921690D02*
X14125119Y-14940738D01*
X14125119Y-14940738D02*
X14125119Y-14997881D01*
X14125119Y-14997881D02*
X14115595Y-15016928D01*
X14115595Y-15016928D02*
X14106072Y-15026452D01*
X14106072Y-15026452D02*
X14087024Y-15035976D01*
X14087024Y-15035976D02*
X14058452Y-15035976D01*
X14239405Y-15035976D02*
X14220357Y-15026452D01*
X14220357Y-15026452D02*
X14210833Y-15007405D01*
X14210833Y-15007405D02*
X14210833Y-14835976D01*
X14391786Y-15026452D02*
X14372738Y-15035976D01*
X14372738Y-15035976D02*
X14334643Y-15035976D01*
X14334643Y-15035976D02*
X14315595Y-15026452D01*
X14315595Y-15026452D02*
X14306072Y-15007405D01*
X14306072Y-15007405D02*
X14306072Y-14931214D01*
X14306072Y-14931214D02*
X14315595Y-14912167D01*
X14315595Y-14912167D02*
X14334643Y-14902643D01*
X14334643Y-14902643D02*
X14372738Y-14902643D01*
X14372738Y-14902643D02*
X14391786Y-14912167D01*
X14391786Y-14912167D02*
X14401310Y-14931214D01*
X14401310Y-14931214D02*
X14401310Y-14950262D01*
X14401310Y-14950262D02*
X14306072Y-14969309D01*
X14477500Y-15026452D02*
X14496548Y-15035976D01*
X14496548Y-15035976D02*
X14534643Y-15035976D01*
X14534643Y-15035976D02*
X14553691Y-15026452D01*
X14553691Y-15026452D02*
X14563214Y-15007405D01*
X14563214Y-15007405D02*
X14563214Y-14997881D01*
X14563214Y-14997881D02*
X14553691Y-14978833D01*
X14553691Y-14978833D02*
X14534643Y-14969309D01*
X14534643Y-14969309D02*
X14506072Y-14969309D01*
X14506072Y-14969309D02*
X14487024Y-14959786D01*
X14487024Y-14959786D02*
X14477500Y-14940738D01*
X14477500Y-14940738D02*
X14477500Y-14931214D01*
X14477500Y-14931214D02*
X14487024Y-14912167D01*
X14487024Y-14912167D02*
X14506072Y-14902643D01*
X14506072Y-14902643D02*
X14534643Y-14902643D01*
X14534643Y-14902643D02*
X14553691Y-14912167D01*
X14629881Y-15112167D02*
X14639405Y-15102643D01*
X14639405Y-15102643D02*
X14658453Y-15074071D01*
X14658453Y-15074071D02*
X14667976Y-15055024D01*
X14667976Y-15055024D02*
X14677500Y-15026452D01*
X14677500Y-15026452D02*
X14687024Y-14978833D01*
X14687024Y-14978833D02*
X14687024Y-14940738D01*
X14687024Y-14940738D02*
X14677500Y-14893119D01*
X14677500Y-14893119D02*
X14667976Y-14864548D01*
X14667976Y-14864548D02*
X14658453Y-14845500D01*
X14658453Y-14845500D02*
X14639405Y-14816928D01*
X14639405Y-14816928D02*
X14629881Y-14807405D01*
X14959405Y-15112167D02*
X14949881Y-15102643D01*
X14949881Y-15102643D02*
X14930833Y-15074071D01*
X14930833Y-15074071D02*
X14921310Y-15055024D01*
X14921310Y-15055024D02*
X14911786Y-15026452D01*
X14911786Y-15026452D02*
X14902262Y-14978833D01*
X14902262Y-14978833D02*
X14902262Y-14940738D01*
X14902262Y-14940738D02*
X14911786Y-14893119D01*
X14911786Y-14893119D02*
X14921310Y-14864548D01*
X14921310Y-14864548D02*
X14930833Y-14845500D01*
X14930833Y-14845500D02*
X14949881Y-14816928D01*
X14949881Y-14816928D02*
X14959405Y-14807405D01*
X15035595Y-14902643D02*
X15035595Y-15035976D01*
X15035595Y-14921690D02*
X15045119Y-14912167D01*
X15045119Y-14912167D02*
X15064167Y-14902643D01*
X15064167Y-14902643D02*
X15092738Y-14902643D01*
X15092738Y-14902643D02*
X15111786Y-14912167D01*
X15111786Y-14912167D02*
X15121310Y-14931214D01*
X15121310Y-14931214D02*
X15121310Y-15035976D01*
X15245119Y-15035976D02*
X15226072Y-15026452D01*
X15226072Y-15026452D02*
X15216548Y-15016928D01*
X15216548Y-15016928D02*
X15207024Y-14997881D01*
X15207024Y-14997881D02*
X15207024Y-14940738D01*
X15207024Y-14940738D02*
X15216548Y-14921690D01*
X15216548Y-14921690D02*
X15226072Y-14912167D01*
X15226072Y-14912167D02*
X15245119Y-14902643D01*
X15245119Y-14902643D02*
X15273691Y-14902643D01*
X15273691Y-14902643D02*
X15292738Y-14912167D01*
X15292738Y-14912167D02*
X15302262Y-14921690D01*
X15302262Y-14921690D02*
X15311786Y-14940738D01*
X15311786Y-14940738D02*
X15311786Y-14997881D01*
X15311786Y-14997881D02*
X15302262Y-15016928D01*
X15302262Y-15016928D02*
X15292738Y-15026452D01*
X15292738Y-15026452D02*
X15273691Y-15035976D01*
X15273691Y-15035976D02*
X15245119Y-15035976D01*
X15368929Y-14902643D02*
X15445119Y-14902643D01*
X15397500Y-14835976D02*
X15397500Y-15007405D01*
X15397500Y-15007405D02*
X15407024Y-15026452D01*
X15407024Y-15026452D02*
X15426072Y-15035976D01*
X15426072Y-15035976D02*
X15445119Y-15035976D01*
X15631786Y-14902643D02*
X15631786Y-15102643D01*
X15631786Y-14912167D02*
X15650833Y-14902643D01*
X15650833Y-14902643D02*
X15688929Y-14902643D01*
X15688929Y-14902643D02*
X15707976Y-14912167D01*
X15707976Y-14912167D02*
X15717500Y-14921690D01*
X15717500Y-14921690D02*
X15727024Y-14940738D01*
X15727024Y-14940738D02*
X15727024Y-14997881D01*
X15727024Y-14997881D02*
X15717500Y-15016928D01*
X15717500Y-15016928D02*
X15707976Y-15026452D01*
X15707976Y-15026452D02*
X15688929Y-15035976D01*
X15688929Y-15035976D02*
X15650833Y-15035976D01*
X15650833Y-15035976D02*
X15631786Y-15026452D01*
X15841310Y-15035976D02*
X15822262Y-15026452D01*
X15822262Y-15026452D02*
X15812738Y-15007405D01*
X15812738Y-15007405D02*
X15812738Y-14835976D01*
X16003214Y-15035976D02*
X16003214Y-14931214D01*
X16003214Y-14931214D02*
X15993691Y-14912167D01*
X15993691Y-14912167D02*
X15974643Y-14902643D01*
X15974643Y-14902643D02*
X15936548Y-14902643D01*
X15936548Y-14902643D02*
X15917500Y-14912167D01*
X16003214Y-15026452D02*
X15984167Y-15035976D01*
X15984167Y-15035976D02*
X15936548Y-15035976D01*
X15936548Y-15035976D02*
X15917500Y-15026452D01*
X15917500Y-15026452D02*
X15907976Y-15007405D01*
X15907976Y-15007405D02*
X15907976Y-14988357D01*
X15907976Y-14988357D02*
X15917500Y-14969309D01*
X15917500Y-14969309D02*
X15936548Y-14959786D01*
X15936548Y-14959786D02*
X15984167Y-14959786D01*
X15984167Y-14959786D02*
X16003214Y-14950262D01*
X16069881Y-14902643D02*
X16146072Y-14902643D01*
X16098453Y-14835976D02*
X16098453Y-15007405D01*
X16098453Y-15007405D02*
X16107976Y-15026452D01*
X16107976Y-15026452D02*
X16127024Y-15035976D01*
X16127024Y-15035976D02*
X16146072Y-15035976D01*
X16288929Y-15026452D02*
X16269881Y-15035976D01*
X16269881Y-15035976D02*
X16231786Y-15035976D01*
X16231786Y-15035976D02*
X16212738Y-15026452D01*
X16212738Y-15026452D02*
X16203214Y-15007405D01*
X16203214Y-15007405D02*
X16203214Y-14931214D01*
X16203214Y-14931214D02*
X16212738Y-14912167D01*
X16212738Y-14912167D02*
X16231786Y-14902643D01*
X16231786Y-14902643D02*
X16269881Y-14902643D01*
X16269881Y-14902643D02*
X16288929Y-14912167D01*
X16288929Y-14912167D02*
X16298453Y-14931214D01*
X16298453Y-14931214D02*
X16298453Y-14950262D01*
X16298453Y-14950262D02*
X16203214Y-14969309D01*
X16469881Y-15035976D02*
X16469881Y-14835976D01*
X16469881Y-15026452D02*
X16450834Y-15035976D01*
X16450834Y-15035976D02*
X16412738Y-15035976D01*
X16412738Y-15035976D02*
X16393691Y-15026452D01*
X16393691Y-15026452D02*
X16384167Y-15016928D01*
X16384167Y-15016928D02*
X16374643Y-14997881D01*
X16374643Y-14997881D02*
X16374643Y-14940738D01*
X16374643Y-14940738D02*
X16384167Y-14921690D01*
X16384167Y-14921690D02*
X16393691Y-14912167D01*
X16393691Y-14912167D02*
X16412738Y-14902643D01*
X16412738Y-14902643D02*
X16450834Y-14902643D01*
X16450834Y-14902643D02*
X16469881Y-14912167D01*
X16546072Y-15112167D02*
X16555595Y-15102643D01*
X16555595Y-15102643D02*
X16574643Y-15074071D01*
X16574643Y-15074071D02*
X16584167Y-15055024D01*
X16584167Y-15055024D02*
X16593691Y-15026452D01*
X16593691Y-15026452D02*
X16603214Y-14978833D01*
X16603214Y-14978833D02*
X16603214Y-14940738D01*
X16603214Y-14940738D02*
X16593691Y-14893119D01*
X16593691Y-14893119D02*
X16584167Y-14864548D01*
X16584167Y-14864548D02*
X16574643Y-14845500D01*
X16574643Y-14845500D02*
X16555595Y-14816928D01*
X16555595Y-14816928D02*
X16546072Y-14807405D01*
M02*
