%TF.GenerationSoftware,KiCad,Pcbnew,(7.0.0-0)*%
%TF.CreationDate,2023-05-15T11:59:49-04:00*%
%TF.ProjectId,4dapter,34646170-7465-4722-9e6b-696361645f70,rev?*%
%TF.SameCoordinates,Original*%
%TF.FileFunction,Soldermask,Bot*%
%TF.FilePolarity,Negative*%
%FSLAX46Y46*%
G04 Gerber Fmt 4.6, Leading zero omitted, Abs format (unit mm)*
G04 Created by KiCad (PCBNEW (7.0.0-0)) date 2023-05-15 11:59:49*
%MOMM*%
%LPD*%
G01*
G04 APERTURE LIST*
G04 Aperture macros list*
%AMOutline5P*
0 Free polygon, 5 corners , with rotation*
0 The origin of the aperture is its center*
0 number of corners: always 5*
0 $1 to $10 corner X, Y*
0 $11 Rotation angle, in degrees counterclockwise*
0 create outline with 5 corners*
4,1,5,$1,$2,$3,$4,$5,$6,$7,$8,$9,$10,$1,$2,$11*%
%AMOutline6P*
0 Free polygon, 6 corners , with rotation*
0 The origin of the aperture is its center*
0 number of corners: always 6*
0 $1 to $12 corner X, Y*
0 $13 Rotation angle, in degrees counterclockwise*
0 create outline with 6 corners*
4,1,6,$1,$2,$3,$4,$5,$6,$7,$8,$9,$10,$11,$12,$1,$2,$13*%
%AMOutline7P*
0 Free polygon, 7 corners , with rotation*
0 The origin of the aperture is its center*
0 number of corners: always 7*
0 $1 to $14 corner X, Y*
0 $15 Rotation angle, in degrees counterclockwise*
0 create outline with 7 corners*
4,1,7,$1,$2,$3,$4,$5,$6,$7,$8,$9,$10,$11,$12,$13,$14,$1,$2,$15*%
%AMOutline8P*
0 Free polygon, 8 corners , with rotation*
0 The origin of the aperture is its center*
0 number of corners: always 8*
0 $1 to $16 corner X, Y*
0 $17 Rotation angle, in degrees counterclockwise*
0 create outline with 8 corners*
4,1,8,$1,$2,$3,$4,$5,$6,$7,$8,$9,$10,$11,$12,$13,$14,$15,$16,$1,$2,$17*%
G04 Aperture macros list end*
%ADD10R,1.600000X1.600000*%
%ADD11C,1.600000*%
%ADD12C,4.100000*%
%ADD13C,2.200000*%
%ADD14C,2.000000*%
%ADD15C,2.500000*%
%ADD16R,1.700000X1.700000*%
%ADD17O,1.700000X1.700000*%
%ADD18C,3.000000*%
%ADD19R,1.050000X1.500000*%
%ADD20O,1.050000X1.500000*%
%ADD21Outline5P,-0.800000X0.480000X-0.480000X0.800000X0.800000X0.800000X0.800000X-0.800000X-0.800000X-0.800000X90.000000*%
G04 APERTURE END LIST*
D10*
%TO.C,U1*%
X121691399Y-54381399D03*
D11*
X121691400Y-56921400D03*
X121691400Y-59461400D03*
X121691400Y-62001400D03*
X121691400Y-64541400D03*
X121691400Y-67081400D03*
X121691400Y-69621400D03*
X121691400Y-72161400D03*
X121691400Y-74701400D03*
X121691400Y-77241400D03*
X121691400Y-79781400D03*
X121691400Y-82321400D03*
X136931400Y-82321400D03*
X136931400Y-79781400D03*
X136931400Y-77241400D03*
X136931400Y-74701400D03*
X136931400Y-72161400D03*
X136931400Y-69621400D03*
X136931400Y-67081400D03*
X136931400Y-64541400D03*
X136931400Y-62001400D03*
X136931400Y-59461400D03*
X136931400Y-56921400D03*
X136931400Y-54381400D03*
%TD*%
D12*
%TO.C,J1*%
X104043200Y-126845600D03*
X103793200Y-106845600D03*
D13*
X117043200Y-122845600D03*
X117043200Y-118845600D03*
X117043200Y-114845600D03*
X117043200Y-110845600D03*
X114043200Y-110845600D03*
X114043200Y-114845600D03*
X114043200Y-118845600D03*
%TD*%
D14*
%TO.C,RESET*%
X142159600Y-66192400D03*
X142159600Y-59692400D03*
X146659600Y-66192400D03*
X146659600Y-59692400D03*
%TD*%
D15*
%TO.C,REF\u002A\u002A*%
X145000000Y-55000000D03*
%TD*%
%TO.C,REF\u002A\u002A*%
X145000000Y-135000000D03*
%TD*%
D11*
%TO.C,C2*%
X111277400Y-133559400D03*
X111277400Y-136059400D03*
%TD*%
D16*
%TO.C,U3*%
X128469399Y-122173999D03*
D17*
X128469399Y-119633999D03*
X128469399Y-117093999D03*
%TD*%
D11*
%TO.C,C1*%
X120980200Y-136129400D03*
X120980200Y-133629400D03*
%TD*%
D18*
%TO.C,U4*%
X115156200Y-64694400D03*
X115156200Y-68694400D03*
X115156200Y-72694400D03*
X115156200Y-76694400D03*
X115156200Y-83194400D03*
X115156200Y-87194400D03*
X115156200Y-91194400D03*
%TD*%
D15*
%TO.C,REF\u002A\u002A*%
X104978200Y-55016400D03*
%TD*%
D19*
%TO.C,U2*%
X117317199Y-134519399D03*
D20*
X116047199Y-134519399D03*
X114777199Y-134519399D03*
%TD*%
D15*
%TO.C,*%
X122422231Y-95000000D03*
%TD*%
D21*
%TO.C,J3*%
X129547199Y-98892699D03*
D11*
X129547200Y-96122700D03*
X129547200Y-93352700D03*
X129547200Y-90582700D03*
X129547200Y-87812700D03*
X132087200Y-97507700D03*
X132087200Y-94737700D03*
X132087200Y-91967700D03*
X132087200Y-89197700D03*
%TD*%
D16*
%TO.C,J4*%
X131343399Y-136702799D03*
D17*
X133883399Y-136702799D03*
X136423399Y-136702799D03*
X138963399Y-136702799D03*
X141503399Y-136702799D03*
%TD*%
D15*
%TO.C,REF\u002A\u002A*%
X105000000Y-135000000D03*
%TD*%
M02*
