M48
; DRILL file {KiCad (7.0.0-0)} date Monday, May 15, 2023 at 11:59:50 AM
; FORMAT={-:-/ absolute / inch / decimal}
; #@! TF.CreationDate,2023-05-15T11:59:50-04:00
; #@! TF.GenerationSoftware,Kicad,Pcbnew,(7.0.0-0)
; #@! TF.FileFunction,Plated,1,2,PTH
FMAT,2
INCH
; #@! TA.AperFunction,Plated,PTH,ViaDrill
T1C0.0157
; #@! TA.AperFunction,Plated,PTH,ComponentDrill
T2C0.0295
; #@! TA.AperFunction,Plated,PTH,ViaDrill
T3C0.0315
; #@! TA.AperFunction,Plated,PTH,ComponentDrill
T4C0.0315
; #@! TA.AperFunction,Plated,PTH,ComponentDrill
T5C0.0394
; #@! TA.AperFunction,Plated,PTH,ComponentDrill
T6C0.0433
; #@! TA.AperFunction,Plated,PTH,ComponentDrill
T7C0.0472
; #@! TA.AperFunction,Plated,PTH,ComponentDrill
T8C0.0689
%
G90
G05
T1
X4.3277Y-4.224
X4.3673Y-4.224
X4.63Y-2.656
X4.63Y-3.4329
X4.6735Y-2.656
X4.6735Y-3.2754
X4.717Y-2.656
X4.717Y-2.749
X4.717Y-3.0195
X4.9314Y-2.941
X4.9707Y-3.041
X5.1904Y-3.3075
X5.501Y-2.941
X5.6191Y-3.041
X5.6585Y-2.841
X5.6979Y-3.241
T2
X4.5188Y-5.296
X4.5688Y-5.296
X4.6188Y-5.296
T3
X5.4428Y-3.934
X5.76Y-3.141
T4
X4.381Y-5.2582
X4.381Y-5.3567
X4.763Y-5.261
X4.763Y-5.3594
T5
X5.0579Y-4.61
X5.0579Y-4.71
X5.0579Y-4.81
X5.1003Y-3.4572
X5.1003Y-3.5662
X5.1003Y-3.6753
X5.1003Y-3.7844
X5.1003Y-3.8934
X5.171Y-5.382
X5.2003Y-3.5117
X5.2003Y-3.6208
X5.2003Y-3.7298
X5.2003Y-3.8389
X5.271Y-5.382
X5.371Y-5.382
X5.471Y-5.382
X5.571Y-5.382
T6
X4.791Y-2.141
X4.791Y-2.241
X4.791Y-2.341
X4.791Y-2.441
X4.791Y-2.541
X4.791Y-2.641
X4.791Y-2.741
X4.791Y-2.841
X4.791Y-2.941
X4.791Y-3.041
X4.791Y-3.141
X4.791Y-3.241
X5.391Y-2.141
X5.391Y-2.241
X5.391Y-2.341
X5.391Y-2.441
X5.391Y-2.541
X5.391Y-2.641
X5.391Y-2.741
X5.391Y-2.841
X5.391Y-2.941
X5.391Y-3.041
X5.391Y-3.141
X5.391Y-3.241
X5.5968Y-2.3501
X5.5968Y-2.606
X5.774Y-2.3501
X5.774Y-2.606
T7
X4.4899Y-4.364
X4.4899Y-4.5215
X4.4899Y-4.679
X4.608Y-4.364
X4.608Y-4.5215
X4.608Y-4.679
X4.608Y-4.8364
T8
X4.5337Y-2.547
X4.5337Y-2.7045
X4.5337Y-2.862
X4.5337Y-3.0195
X4.5337Y-3.2754
X4.5337Y-3.4329
X4.5337Y-3.5903
T0
M30
